<mxfile host="app.diagrams.net" modified="2022-09-14T06:50:21.794Z" agent="5.0 (Windows NT 10.0; Win64; x64) AppleWebKit/537.36 (KHTML, like Gecko) Chrome/105.0.0.0 Safari/537.36 Edg/105.0.1343.33" etag="2WS-6kRZ2pAytcnZECkZ" version="20.3.0" type="github">
  <diagram id="sPunsnypAaiBYAq_dtAb" name="Page-1">
    <mxGraphModel dx="1185" dy="635" grid="1" gridSize="10" guides="1" tooltips="1" connect="1" arrows="1" fold="1" page="1" pageScale="1" pageWidth="850" pageHeight="1100" math="1" shadow="0">
      <root>
        <mxCell id="0" />
        <mxCell id="1" parent="0" />
        <mxCell id="6_0IzfVlJxFTBLtl2Sgu-1" value="" style="shape=image;verticalLabelPosition=bottom;labelBackgroundColor=default;verticalAlign=top;aspect=fixed;imageAspect=0;image=data:image/png,iVBORw0KGgoAAAANSUhEUgAAAqkAAAKOCAYAAACFj4BJAAAgAElEQVR4nOzdeaBN5f7H8bdklswlShmiSYgm0hWZGpC6Dbp0myN1NUm3WXPplogUSeXqClGKcsO9iqSEECIiM6nIkOH3x/1997PXOnudcQ9r7/N5/XP2WWsPzzln7b3P/qzn+X6LHDx48CAiIiIiIiFySKoHICIiIiLip39SRURERCR09E+qiIiIiISO/kkVERERkdDRP6kiIiIiEjr6J1VEREREQkf/pIqIiIhI6OifVBEREREJHf2TKiIiIiKho39SRURERCR09E+qiIiIiISO/kkVERERkdDRP6kiIiIiEjr6J1VEREREQkf/pIqIiIhI6OifVBEREREJnUNTPQCRwm7btm2Ry/Pnz/d83bhxIwC7d+/2fP3ll18AqFSpEgA33nhjwsd54oknAlC0aNGEP9avv/4KwOrVqxP+WOa4444DoGzZsgl/rD/++AOA7777LuGP9frrrwOwadMmAEqXLg1AyZIlPV/LlCkDQP369QE49dRTATj++OMBOOQQZRoiklx61RERERGR0Cly8ODBg6kehEgmWrNmDQCzZ88Gsqak33zzDQBr165NwejyzlLdqlWrJvyxxo0bB0CXLl0S/lhmypQpALRp0ybhj7Vy5UoAateunfDHKihLXk8++eTItoYNGwIubW3Xrh0AtWrVSvLoRCSTKUkVERERkdDRnFSRBBk4cCAAzzzzTIpHEh82pzEZSWqm279/f6qHkGu///47AHPmzIlsi74Mbt6rklQRiSclqSIiIiISOpqTKpIgixcvBuCkk07K9W1sZXmDBg0AN2fRvxK7SJEiAFSvXh2A7t27x2HEsS1fvhyAFi1aANCyZUsArrnmGsDNG7W5i/GwZ88eALZv3x63+8xJhQoVAChevHjc7/vrr78GYMSIEQCMGjUKgIkTJwKJnZs6cuRIwM19tlX6VinCftdbt24FYMGCBQCsWrUq148xb948wM1VFRGJByWpIiIiIhI6SlJFEuziiy/2fO9fGR2dPtmcPktKw+Dee+8F4Omnn46539LfP//5zwD8/e9/Bwrn/ESba/raa68BMGjQIAAWLlwY8/r2u3rssceSMLq8sVq8lqxaNQpwFSrs5/rvf/8LJCaFFpHCS0mqiIiIiISOklQRydbZZ58NwKxZs3J1/RIlSgBw2223AXD//fdH9pUrVy7Oo0u9yZMnRy7feeedgJuPnBObi/r999/Hf2AiImlOSaqIiIiIhI6SVBHJlr1ETJs2DXAr1K0r1M6dO7O9fZUqVSKXH330UQBuuOEGAIoWLRrfwSaBpaSWmkYnqTlp3Lgx4CojXHnllQBUrlw5nkPMKAcOHABcvVabAy0imU9JqoiIiIiEjpJUKVSWLl0KuBTsr3/9K5DcHvGZYseOHQC89dZbADzyyCMAbNiwIcfbWh/4/v37A9CmTZtEDDEutmzZAsBDDz0EwNChQwHYt29f4G2sOoMlpX379gXczy25Z92s7HdolRCuvfZawNV9FZHMo2e3iIiIiISOklTJaFa30lIwq/VpKZjV8rR5hrYyXfLOktUnnngCgH/84x+A62wUS9WqVQH44YcfgPh2rSqozZs3A1C/fn0Atm3bluNtzjrrLMD97GeccUaCRpfZouc5161bF4D169d7rtOoUSPAde+yv5OIZA4lqSIiIiISOkpSJSNt3LgRgCuuuAKA6dOnZ3v94cOHA26OqhTc6tWrAejTp09k2zvvvOO5zpAhQwC46aabkjewPLKKBJbGm2OOOQbwduKy400K5uOPP45cvuiiiwDYu3dvzOvaav9hw4YBrvOZiKQ/JakiIiIiEjpKUiWjzJw5E3Bpin8em6lRowYATz75JABdu3YF3KpsSYzPP/8ccAmqrdwOc71Ue4m0Y6phw4aAqxBRsmTJ1AyskFi5ciUA99xzDwBjx47N9vrW6ey5554DoFixYgkcnYgkkpJUEREREQkd/ZMqIiIiIqGj0/2SEawo/L333gsEF1rv1KkT4Fp7Hn744UkYXfz88ccfgFtEYqcyixcvnrIxiSSTLb67/vrrAVf6zM/KgY0ZMwaA6tWrJ2F0IhJPSlJFREREJHSUpEpa+vXXXwFXMmrcuHExr3fooYcCrsD83XffnYTRFZz9PN26dQNcQXxrTuBnC74sWa1SpQoAderU8Xy1wuj2PcCRRx6ZqzGdfvrpnsdIJCucv2TJkoQ/ljnppJMAKF++fMIfa8+ePQDMnTs34Y9l7Dlj7UX9rP2rXa9UqVKAWxhm34NrepHKhYb2nFi1ahXgfqd+tiivZs2aABx22GFJGJ3k14EDBwD47bffANfgw/+6Y4l6vXr1kjg6STYlqSIiIiISOoemegAiebF27VoAWrduDcDSpUtjXs/SQfu03aJFiySMLn6OO+44wNseMjt2QsTmqv7000+erzNmzCjwmKxBgrUyTSRrvtClS5eEP5aZMmUKAG3atEn4Y9nfpXnz5gl/LNO7d28Ajj766Jj77e9rCZZ9jeWQQ/6Xb5QrVw6AI444AnCl3aJT10Sz58qCBQsAWLdunWe/nX2wUlYnn3wyAMcee2yyhih5YC2qLSE3F154oed7zcMvHJSkioiIiEjoKEmVtNKrVy8gOEG1xNQS1NzOtwwbmx9p87BsVb9khhUrViT9Me258Pzzz8fcHz1POSc2b3D79u2er8uWLQOgZcuWAHTv3h1wiXiZMmXyOuw8GzhwIOCaLfjbqVo724kTJwJq4BE2lqTaa+CoUaMAuPLKK1M2JkkdJakiIiIiEjpa3S9pZfPmzYBLahYtWgTAHXfcAcDTTz8NuFX98WSrn23uorVSTaT58+cD7uexVdW2Yvn3338H3Mpm+/7777/33H7hwoWer9FzId96661cjSWZ8wwtqQtasZ0I9ru1+ZbxYOO3urzDhw8HYM6cOXm6n0ceeQQoWHUKS+WDnhsTJkwAYN68eYA7duzrDz/8kO/HLlu2LODSS3v+JtIXX3wBQOfOnQFo0KAB4H5O+3tLuChJlWhKUkVEREQkdJSkSlratGkTAGPHjgXglltuiftj2Fy2l156CYB+/foBrsPNmjVrAKhWrVrcHzvRohPKTEiU7G9iqVl04piM1fp+1uWoT58+QO5TSEtxzz//fMClR+eddx4QvDI/GX755ZfIZVtJ/8knnwAwcuRIAFavXh3ztlZrdf369UByatEa+93b89TGIuGkJFWiKUkVERERkdBRkioSZfz48ZHL99xzD+Dmd/rZ/Fe7nnhZ16jDDz88ss3m0saLJajWSWvDhg2Ad97lBx98AEDbtm3j+tjm22+/jVzu0aMHAP/9739zddsTTjgBcKvgr776aiD9+szb28i0adMAeOONNwB3puOCCy4AXNUNkSBKUiWaklQRERERCR3VSZVC7ZtvvgFcNx7rdJQdW6mcjJqP6eyaa64BvJ1j+vfvD7g5l/llCarVxbUE1ezbty9y2TrV2Mry9u3bF+ix/ayHPMDMmTNjXscSZEtMb7rpJgBOP/30uI4lVazWqM2dta+DBg0CXB1VEZG8UJIqIiIiIqGjJFUKFUvY+vbtC7juO1aXMxZbcf3Xv/4VgMceewxI325WiTZ16lQA3n///Sz7bKX9FVdcAcDQoUMBOOyww3J139Z566KLLgJcTc/s2N/cVv5bndtzzz03V4+ZkyZNmkQu/+UvfwHcandLjC1BPuWUU+LymOnCzjrYVxGRvFCSKiIiIiKhoyRVCgWrz3j55ZcDuVt9bV1xLG1t2LBhgkaXWWyFd3ZGjx4NuCTUVoHbit4gvXr1AoLnDrdq1QqAzz//PLJt165dgKsNe9lllwHw5ZdfAlCzZs0cx5tbTzzxhOcxbD6siIjknZJUEREREQkd1UmVjDZjxgzAJagbN26Meb1atWoBbu4gQKdOnRI8usz22WefAfC3v/0tsm3u3Lkxr2uVEmyO6lVXXeXZP2TIECC4s5gll5bQ2t8dXH1Um89qLBm3cZYuXTrbn0dEEk91UiWaklQRERERCR3NSZWM9q9//QsITlAtgRs2bBiQ+1XmkrNmzZoBMGvWrMg262Vv83zNzp07AejatSvg0s1LLrkEgNtuuy3mYzRq1AiAESNGAK4Sg80nBhg4cCDgapMaq5FrVRvUDSk9jRkzBnApvCVvVapUSdmYRCQ+lKSKiIiISOhoTqoknK2irl27NgAVK1ZM2mPbiu7mzZsDMH/+fACeeeYZwDtfUpLHVvNfe+21APz6668xr3foof872RPdQQpcSmZzXI855pgcH9Pms9r8Vr/HH38cgPvuuy/H+5LUW7p0KQBNmzYF4LfffgOgRo0agDvGEtHVa8GCBQC8+uqrAAwYMABwnbck/zQnVaIpSRURERGR0NE/qSIiIiISOlo4JQmzcuVKANq1awdA+fLlAZgwYQIAJ598csLHUKJECQDeffddANauXQu4RT2SGl26dAGgQYMGnu8XLlzouZ7/NL+d/rdTubk5zW/slKydTvzPf/7j2f/AAw94xqRC/OH2yiuvAO40v7HnuDV2+OijjwA35acgxo0bB0C3bt0At+DPpjA98sgjBX4MEXGUpIqIiIhI6ChJlbjbsWMHAB07dgRg27Ztnq9/+tOfAPjhhx+A5JR9staX8WyBKQVXt25dAGbPng24hNvKQ/lZkf9zzjknz49VtGhRwJW1suNvzZo1ABw4cABw5a+UpIabNd6wRXSWhO/fvx9wr0Pt27cHYNKkSQC0aNEi3485ePBgwCWopl+/fgCceuqpgDvGRKRglKSKiIiISOgoSZW4s6Lp3377bcz9zz77LKDC+eJYS1IrV2aJ6pw5cwA4++yzAXjjjTfyfN+WkFq5K7sPS/qt/JUlc9ddd13efwBJOiv31LdvX8CVLLIGHXv37gVcotqhQwcAPvjgA8Cd0ckLa/hgZa9s3r1VcuzevTvgElUruyci+aMkVURERERCR8X8JW5s5aut1Pbr1asX4FZZi+TEmi707t0bgGLFiuXqdpaeAlxzzTUAvPnmmzGv+/DDDwPw0EMP5XucEh6WlF566aWAa+hhLLV///33ATjvvPPy/Bh2luiss84CXFprbN7r9OnTARX5zwsV85doSlJFREREJHSUpEqBbd26FXCffDdu3OjZ36RJEwBmzZoFuFqXIvFmK7ttbiDA22+/HfO6loJNnjwZgHLlyiV4dJJMVh+1c+fOQNZEtVSpUoCr23z++efn+TEsnbe6qX521sjOIknOlKRKNCWpIiIiIhI6SlKlwOwT7ujRoz3brdvTV199BbhPxiKJYpUlhg4dGngdqxxgSZuqTGS2KVOmANCpUycAdu/e7dlfsmRJwM0fBTjjjDPy9BgXX3wx4Oa5Gpv/umDBAkCr/XNDSapEU5IqIiIiIqGjyYGSb+PHjweyJqjmwQcfBPKeoP78888AVKhQoQCjk8Jk0KBBQPYJqnWp+vDDDwEoW7Zs4gcmKde2bVsAJk6cCLj6uLt27QJcstqzZ8/IbebOnZunx3jllVcAmDlzJuBew37//XfA1d6dNm0aoNX+IrmlJFVEREREQkdzUiVPbCU/5Lya3/qxW8/0nPzjH/8AXEcqS2rzOj9MCo8ZM2YA0Lp1awD27duX5TqnnXaa57plypRJ0ugkjKyaw4UXXgi448NebwCOOuqofN33yJEjAW91iWgvvfQSALfeemu+7r8w0JxUiaYkVURERERCR0mq5MlVV10VufzPf/7Ts6948eIAfP3110Du56JOnToVgHbt2gGu1qVVB3j33Xcj17X0Qwq31atXAy6137Jli2f/EUccEbn85ZdfAnD00UcnaXSSDixRbdmyJeBeb+LhoosuAlz3K2Mpvq32B6hVq1bcHjcTKEmVaEpSRURERCR0tLpfcmXTpk2AW50aS15X869YsQKAyy+/HHAJqqlYsSIAjRs3zttgJWPZamlboe1PUC3NHzt2bGSbElSJxc7cJIJVmbDXQlvt37RpUyD38/RFCjslqSIiIiISOkpSJVeqVq0KuPlCALfddhsA3333HQB9+vTJ1X3t2LEDcGnYtm3bPPttbti4ceOA/K+0lcxjvdLnz58fc//AgQMB11UqlrfeegtwdVNr1qwZzyGKUK1aNcDV77XXuB49egCqkyqSW0pSRURERCR0lKRKnkR3gbJUa+fOnQAcemjuDierIbho0aKY+4cMGQLAmWeeme9xSuocOHAAgEMOif9n4Jtuuglw3YLuuusuAG688UYAbrjhhiy3sbnOd955JwAvvvgiAI0aNQJg1qxZQHxWd1st1nPPPbfA9yXpTyvSRQpGSaqIiIiIhI6SVCmw3HbwsW4sNtfUz+a4XnPNNfEZmCSVJaiWgLdq1QqAvn37Rq5Trly5uDzW3/72N89jWdegWKxWpSWoZt68eQA88sgjADzxxBN5GsPnn38OwN13351l25QpUwBo06ZNnu5TREQcJakiIiIiEjrqOCUJt379eiBrzUBjq6w//fRTIPdzWyVchg8fDsB1113n2V65cuXIZasEUalSpeQN7P/ZuGycxmpWzp49G3BdrHJy9tlnA25Oa7RTTz0VcN3XEjE/VyQTqeOURNMrp4iIiIiEjv5JFREREZHQ0XlVSTgrG+Q/zV+6dGkAXn/9dUCn+dOVtSp94IEHYu6PLseUitP85oUXXgBg6tSpAPz444+AK1FlC/bsFL21WA3y7LPPAtC8efMs+6zZgJVps7JrIiKSe0pSRURERCR0FF1JwliK9P7778fc/+STTwJQu3btpI1J4u/5558HYN26dZ7txYoVA+Cpp55K+phiOeywwwB49dVXAWjbtq1nvzWXsJJUjz/+eLb3Z61XO3fuHNk2fvx4z3Xuv/9+AC6//HIASpYsma+xi4gURkpSRURERCR0VIJK4s4OqQYNGgDw7bffeva3aNECgOnTpwNQpEiRJI5O4mXTpk0A1KlTB4DffvvNs79Xr14ADBgwILkDyyVrofraa695ttvcaCtJlV2jAIBly5ZFLlvZnH379nmuY2cN7r333gKMWMLK5jdbGt++fftUDietqQSVRFOSKiIiIiKhoyRVEmb79u0A3H777QC8++67ACxYsADQXNR017NnTwBefvllz/bDDz8cgO+//x7wFvMPk19//RWAk08+GYA1a9Z49tv2r776Csh5tT8E/06sHeyKFSuA8P5OJG9eeeUVwLXGtbNCdvbo6KOPTs3A0piSVImmJFVEREREQkdJqiSNJVVKF9KbzcEMmn/5xBNPANC3b9/kDiyfPv74YyDran9jK/T79euX432l+zxdyZ0NGzYAUK9ePcCl8saOpcmTJyd3YBlASapEU5IqIiIiIqGjJFVE8sS6J40cOdKzvUaNGoBLWkuVKpXcgRXQ9ddfD8CwYcM820uUKAHAd999B8Cxxx6b431ZjVVLYf33tWrVKgCOPPLIAoxYUm3o0KGA66rnN2HCBAAuvvjiAj+WdUYrWrRoge8rzJSkSjQlqSIiIiISOkpSC6kZM2YAsGTJEsD1LVdHHAny008/AXDccccB8Mcff3j2WycnSySz8/vvvwNQunTpeA6xQGxeoc0ztHmHJi+1Tnft2gW41NXmqpr77rsPyLmrlaSHli1bAq72s6lfvz7gVvvnJQX94osvAHj22WcB2LFjB5D581yVpEo0JakiIiIiEjpKUgsp/yf/KlWqAPDiiy8C+tQqWfXp0weAZ555xrPd5lWuXr0ayL6e6IEDBwBo3Lgx4FJLSylr1aoVxxHnz5AhQwAYPHgw4H7eoNX/2Xn00UcBeOihhzzbK1asCLhORWXKlMnfYCUUrJZu06ZNAdd1z9gxFTR3Ndpnn30GQPPmzWPu/+abbwA49dRT8zfYkFOSKtGUpIqIiIhI6ChJLWTsE3+TJk1i7v/kk08AaN26ddLGJOFmq4qPOeYYANatW+fZb/MqbZ5ldkaMGAHAX//6V892S1+XL1/ueaxUsJ/Xugcdckj+P8tv3boVcLWBba5qs2bNAHjjjTcAdV/LFF27dgVc+meOOOIIwHVhK1u2bI73ZR3PFi1a5Nl+9dVXA/Dmm28WbLAhpSRVoilJFREREZHQUZJayNin0dGjR3u2N2zYEIB58+YlfUySHrZt2wa4vvSvv/46AHPnzgWgQoUKMW9n6SHA8ccfD8DatWs917nkkksAGDt2bBxHHB5We9XSoTPPPDOVw5EEsfq3tqp/z549nv0PPvggAI888kiO92XPr2uvvdazvVixYgCsXLkScPWJM4WSVImmJFVEREREQkdJaiFhK6+tp7i/37rNb7L5TiI5sZcOm7sZxFbuQ9Z5q4ceeijg0pO6devGc4giKXHXXXcB0L9/f892q+Jgc68BqlWrFvM+9u7dC7hau+vXr4/5GFZHNVMoSZVoSlJFREREJHSUpBYSvXv3BuCFF17wbLf5TD/88APgki2Rgtq8eTPg0ntwXZ1Mz549ARg4cGDyBiaSYD///DPgqjbY9+aGG26IXB46dGi292VnIvxnIcqVKwfAmjVrPN+nOyWpEk1JqoiIiIiEjpLUDLd9+3bA1Wm0/s/G5jPZ/CaReLntttsAeOmll7LsO+ywwwBYsWIF4DqeiWQSm5Pqf30tWrRo5PLChQsBOOGEE2Leh6WwVjvY/xr+3HPPAXDnnXfGYcSppyRVoilJFREREZHQ0QTEDGc9o/2fvm3+0o033pjt7WfNmgW4T/vdunWL7CtZsmTcximZw+aivvrqq4HX6dOnD6AEVTLbrbfeCrg51zYn+5Zbbolcp3Llytneh9UftnqpAwYM8Ox/8cUXAbj99tsBrSuQzKIkVURERERCR/+kioiIiEjo6LxAhtq/fz8Qe9EKuBIoOZUtefTRRwGYPHkyAA888EBk3/PPPw9A165dCzZYySh2anP37t1Z9lWqVAlwJdFEMlmJEiUAmDRpEgA1a9YEXFH/vLDnzKBBgwD3Gm8lqN59910ArrjiigKMWCRclKSKiIiISOgoSc1QU6ZMAWDdunWe7Tap3ibZB1m0aBHgElSzadOmyOVMKR4t8bFr1y4AXn755cDr2IKR0qVLJ2VMImFw4oknFvg+rD1qly5dAPjXv/7l2T98+HBASapkFiWpIiIiIhI6SlIz1BtvvBFze9u2bQFX3D+IFaH2q1+/fuTyhRdemM/RSSYaMWIEAFu2bPFst3l5AL169UrqmEQyzfXXXw9kTVL//e9/A7B27VrAtbwWSWdKUkVEREQkdJSkZqjixYsDLsXas2cPAN27d8/2dhs2bADg7bffjrn/jjvuiFwuUqRIgccpmcOf7Ji//OUvkctVq1ZN1nBSyppf2BzwoJaXInnVqlUrwJ0Nq1WrFuBe2ytWrJiagYkkgJJUEREREQkdJakZ6s033wRcC7133nkHgIsvvjjb29n19+7d69l+xBFHAN62qCLRPv74YwBGjx4NuDq6d955Z8rGlAxz5syJXH7wwQcBV12jU6dOAIwfPz75A5OMdMgh/8uWFi9eDEDZsmVTORyRhFKSKiIiIiKhoyQ1w1WoUAGAm2++Odvr7dy5E4AhQ4bE3N+zZ0/Au1JbJFqxYsUANwc1ei5qJvvxxx8jly1BNRMnTgRg+fLlANStWzdP9231iq1GZn46FUlmUoIqhYGSVBEREREJHSWpAsCwYcMA+Pnnnz3brTNQjx49kj4mSZw//vgjcrlZs2YAtG/fHnDzjmvXrp38gaWhSy65JHLZVlqvXLkSgAMHDgBufu7gwYOzvS97Htr1vvrqK8DVoM2pOoeISCZRkioiIiIioaMktZA7ePAgAC+++GLM/ddccw0AlSpVStqYJPE+/PDDyOUvv/zS8/Wpp54CYNOmTQAcfvjhSR5derHV1gC9e/cGsnbWsg5wTzzxBODmivvNnDkTcAmq//ZKUkWkMFGSKiIiIiKhoyS1kPvPf/4DuDl0xrpJWTIkmcWSuVg6dOgAKEHNj2uvvRZw9VJtjveuXbsAV684qNqGJaU2B9VMnz4dgNWrVwNQs2bNeA5bRCSUlKSKiIiISOgoSS3kghK1c889F4A6deokcziSYFu3bgVg0qRJgdfRvMf8s2oYV1xxBZB1Nb8934KSVHveWV3UVatWAW7uuHWSu//+++M5bBGRUFKSKiIiIiKhoyS1kNu/fz/gugVZ/UylaZnpn//8JwB79+7Nsq9y5coAXHDBBUkdUyay548/SZ09ezYAy5YtA+D444/37Le54Natq1+/fp79lsQqSc18dtZj1KhRgOtW1q5du5SNSSTZlKSKiIiISOgoSS3kLJmxjjiWtF166aUpG5Mkzrhx4wL32TxKS9Ul/8444wwA6tWrB8DSpUs9+231vtVN9bOuX/4k9fvvvwdg4cKFkW2nnHJKHEYsYTFgwAAA7rrrLsCd3WrVqhWgJFUKFyWpIiIiIhI6SlIFcB2lbr311hSPRBLhl19+AVxHo1iie9BLfNjc1Pvuu8+z3VbpP/bYY4C3axW4qhqWkkYnpwAffPBB5LKS1Mxy0kknAS5BNdOmTQNgzZo1ABx99NHJHZhICihJFREREZHQ0T+pIiIiIhI6Ot0vUghMnjwZyHoKEaB8+fIAnHPOOUkdU2FgpaSsZNSBAwcAWLt2LQCffvopAK1bt455+wsvvBDIerr//fffj1zu27dvHEcsqdayZUvAnc630/t27NhUEf8UEpFMpCRVREREREJHSapIIRC90Mavbdu2ABx6qF4O4q1GjRoAnHfeeQBMnTrVs99KggUlqRdddBEATz75pGf7F198Ebm8efNmAKpUqRKHEUuq2SI6S+H9ZcqsbGBek9RFixZFLpcqVQqAWrVq5XucIsmgJFVEREREQkfRSRpZvnw54NpW2nw1+wousREB1/b2o48+CryOpXVBrCzZ7t27AVdWSXNYc++GG24AXOtZ+x2ef/752d7OmgJYSnFA4jEAACAASURBVGqpqc1PBPjwww899ymZwf6e/iTVWupai90zzzwz5u2HDh0KwNNPPw3AypUrI/t69uwJwMCBA+M4YpH4U5IqIiIiIqFT5ODBgwdTPQjJHWtdeuedd3q2161bN3LZPmWLgCve7089ixYtGrm8adMmACpWrOi5zo4dOwA48sgjAdi5c6dn/5gxYwC10E0GS9VGjhyZZZ/9/u3vIZnl7LPPBmDWrFme7TfffDMAgwcPjnm7QYMGAbEbtNSsWROAVatWxW2c8bJ48WLANTUYNWoUAFdeeWXKxiSpoyRVREREREJHc1LTSHRtxGg5zSmUwmv9+vVA1jmNls5A1gTVTJkyBciaoJYtWxaADh06xHewEsie45988gng/d0ryc5slqL7k9T33nsPgJdffhmAIkWKePbbMRMrSV29ejXg6u+qta6ElZJUEREREQkdJalpYPv27YCbX+gXvbpfJNpll10GQJcuXQCYM2cOELvzlF9Qct+uXTsASpcuHY8hSi507twZcH9Hf2ommatjx44A3HLLLQDYMpINGzYAMHfuXACaNm3qud0xxxwDuJTU37UMXP1kJakSVkpSRURERCR0lKSmAeu7vm/fPs929VyX3LIuNkE1FaNZDU6rv+mn5D75oqsxSOFi1TWaNGkCwJdffunZb2moP0k19nyNlaTa2ZK+ffvGZ7AicaYkVURERERCR0lqGgjqu66e65II1hfeKgEYS2O1ql8k+SwRDUpSH3nkkZi3s1X+Tz75ZJZ9/ue6VQERCQslqSIiIiISOorgQszmBgb1XVd9VEmEoOTe30deRJLHXu8feughz/Zvv/0WgG3btgFZ6x7Het5acup/j+nWrVu8hy1SIEpSRURERCR0lKSGmK3GtE/IxmokWr3KWH777TcAmjdvDrj5qzavybbbPEMRE5SkalW/SOo0atQIcB2kzj33XADatGkDQLly5WLezl7jo98v3nzzTc91ZsyYAShJlfDRfygiIiIiEjpKUkPss88+i7n9pJNOAqBSpUqBt/34448BWLBggefrkCFDANiyZQsAxYsXj89gJe39+OOPgDtW/JSkiqTeSy+9lK/bRdfT9iepQe81IqmmJFVEREREQkdJaojNnDkz5vZmzZrleNugvus2f0kJqvgFzUW1HuANGjRI5nBEJI6ye99YunQp4M6wVa5cOSljEsmJklQRERERCR0lqSEWNE/IVubHklPfddVWlSBa1S+SuU444YTIZaul6q8cY+85HTt2TN7ARLKhJFVEREREQkdJagj9/PPPAOzevTvm/uyS1Dlz5gDquy65t3//fgAWLVoUc7+S1OTZs2cPANOmTQOgfPnyAJx55pkpG5NkBquvDW6l/6pVqwD3nmLzz0XCQkmqiIiIiISO/kkVERERkdDR6f4QqlChAgAbN24EYNmyZYA7lX/ssccG3nb69Okxtzdp0gSAKlWqxG2ckhmKFi0KwOrVqwH4/vvvAbeI4rzzzkvNwAoRK9Det29fAHbu3Am4NpU63S/xNG7cOEBtsSX8dISKiIiISOgoSU0Dxx9/vOdrdoLKVrVo0SKuY5LMVadOHc9XSbyyZcsCLkE1alcpiaAEVdKFjlQRERERCR0lqRng4MGDkcuff/55zOtkV7ZK0t/o0aM931uJmerVq6diOJJHQc/PFStWALBhwwYAjjzyyCzX+f333wEYMmQI4NLXL774AnAtL8uUKRPHEYuIJJ6SVBEREREJHSWpGWDJkiWRy/42d6ZZs2bJGo6kQL9+/QBYvHixZ/uIESMA6N69e9LHJLlXt25dAKpWrQrApk2bPPstHe3SpUuW2xYvXhyABx54AHDJqpk9ezYArVq1iuOIRUQST0mqiIiIiISOktQMkN0K4Hr16gFQuXLlZA1HksiS8+g0Pdppp52WzOFIAdkZj/Hjx3u2z5w5E4idpB566P9exk8//XQga61ku62SVBFJN0pSRURERCR0lKRmAEtKYtFc1MxmKXp0hQeA8uXLA3DSSSclfUySf0FJam7qpVqFgKAkVUQk3ShJFREREZHQUZKaAb799tvAfaqPmtm+/PLLmNvPOussAIoUKZLM4UgBBT1f582bB7iV+6VLl871befMmROn0Uk62LdvHwBff/01AEcddRQANWrUSNmYRPJLSaqIiIiIhI6S1Awwd+7cyOVFixYBbg5bmzZtUjImSY6FCxfG3N6oUaMkj0TioXHjxgCUKlUKgF27dgEuHbMuUi1btsxy24YNG8a8z19//RWANWvWAHD00UfHccQSFrfffjsAr732GuBS96eeegqAPn36pGZgIgWgJFVEREREQkdJagaInnd48skne75KZguaj6y/f3oqVqwY4Gqezpgxw7PfVurHSlKPOOIIAKpUqQLA5s2bPfvtWFGSmpms85i/41huKkOIhJWSVBEREREJHSWpImnI5iquXLky5n4lqenN6qUGJanZsdq4/nqplqS2b98+HkOUkLHqDs8995xn++effw54aymr6oekCyWpIiIiIhI6SlJF0tCSJUsAOHDggGe79XGvV69e0sck8RPUKS6oLm60oCTVKn9IZgo6ZrZu3QrAihUrItvq1KmTlDGJFJSSVBEREREJHSWpIbB48WIAypQpA0DNmjVTORxJA0Gr+uvWrQu4lb5+VmfTVoKDO940Ty08rF6q/W38VTv27t0bua7/bx00Hzm7znSS/ipXrgy4zlJr16717I/++/uTVDueJk+e7LmuvTcNHz4cCH5dEUkUJakiIiIiEjpKUkOgR48egFvJW65cOQAGDRoEwNVXX52agUlo5bc+aqdOnQDYsGFDZFvZsmUB+PDDDwE455xz4jFEKYAjjzwSgFWrVuX5tkHHgH8e8yGHKKPIRPb3zy5JtdcBY8dE586dPd8b61Z1yimnxHewIjnQq5SIiIiIhI7+SRURERGR0NHp/hDwl4b59ddfAahUqVIqhiNpIKicUNCpXitDE32a3+zYsQNwCy4kvQUdA9Yu06YQ1KpVK2ljkuSxEmS2CMpkt3CuZMmSANSuXRuA5cuXx7ytTvdLsilJFREREZHQUZKaQhs3bgRgy5YtMfertaUEufzyywGoXr064JLVJk2axLx+dimKlT479thj4zlESZHy5csDMGzYMMCVG7KETWdoMltBSpDZMRKUpIokm5JUEREREQkdJakpFPTp9PDDDwfg6KOPTuZwJI1069bN8zUn2bXEPPHEEwEV88801157baqHICkQlKQuW7YscvmPP/4AoFixYjFv+95773m2K0mVVFGSKiIiIiKhoyQ1hYI+ndq8IJF4yS4J0dxnkczhPzNy8OBBwKWn4FJV/3uNWupK2ChJFREREZHQUZKaQkHzBJWkFi6ff/555LKtqrXkwlZmF7SF5SeffBK4z+qkvvrqqwV6DAmHTZs2AfD9998Dru1t/fr1AahWrRoAHTp0AFyNTMkMpUuXBuC4444DYOXKlVmuY68v/veaoPeeH374AXC1du0xRBJNSaqIiIiIhI6S1BRaunRpzO1Bn2Z37doFuE+zqneYXvbt2wfAO++8A0D//v0BmDdvXsrGBDBmzBjPVykcqlSpAkCPHj0A6Nmzp2e7pDebX7p9+3bP9xCchNarVw+AQw/9378G9ppl81ptLmvDhg0TMGKJZum1dQ6L7iC2Zs0awHWNszNuF1xwAQDnnHNO0saZaEpSRURERCR0ihy0j0iSdDZnyHppmwkTJgBw8cUXx9zeqVMnAI488kgAzjvvvMh13n777cQMVvLN5ga2b9/e871ImNjc1DfeeAOAP//5z6kcjhSQnXkrVapUnm9r3edWr17t2T5x4kQALrroogKOLtjixYsBd0Zx1KhRAFx55ZUJe8ww2L17NwB33XUXAIMGDfLst05y4BJU+99h27ZtnutedtllADz33HMAHHPMMQkYcXIoSRURERGR0NGc1BQ4cOAAAD/99FPM/UGdpvy16jZs2ADAli1b4jg6iZcFCxYA0LZtW8D9vbJjc8KKFy8OwKmnngrkf3X/unXrAJg6dapnu90/wBVXXJGv+5bksRqX06ZNA3J3LFmCZmdsKlSoAMCXX34JwN69ez3XtyTHEiuby3jjjTcWaOySGvlJUI29B/mTVJsLKfFj7+v2vLPvL7/8cgB69eoFwJlnnhm5TdGiRT33sX79egAef/xxAIYMGQLABx98AMCbb74JQJcuXeL/AySYklQRERERCR0lqSmwceNGwNsBJFpQkhrdezma6qqGy6xZswBXh9ISKb9LLrkEgD59+kS2nX766XEdi81r8iepTZs2jVy2OYgSPjbXLDdpfIMGDQD4+9//DrjUxJ+62H0MHDgQgBdeeAGAnTt3Au5Mz0033QS44/eee+4pyI8iaaRGjRoxtytJjR+r7tO8eXPAPe/s9bhbt265vi+rfWzP6Ztvvhlwc1OvuuoqACZNmgRA69atCzT2ZFKSKiIiIiKhoyQ1BdauXRtzu80hqly5csz9QZ9ia9asGZ+BSYFY6mUJqT9BtXml9mn3lltuSfiYdMykN0sz586dG3gdS0xtFXT0fONYrCrIY489BsCll14KuLTWOlYZS/obNWoU2Xb++efn7geQtBR0Ni/ovUty75dffgGgY8eOAOzfvx+Azz77DHBnRArCauLaGbRmzZoBrjKQbY+e5xpWSlJFREREJHSUpKaArao98cQTAZd2WcIRJCgVC/rUK8l16623AlnnDVr3lpEjRwLJrfdnqbxVCbBjSMdMuI0ePRqAd999N+b+a6+9NnJ56NChQNa5p7ll3YNmzpwJuPlqP/74o+d61113XeSyrUAuV65cvh5Twu1Pf/oTAHv27AHcHNXTTjstZWNKdzbntGvXroBbY2LP8XgkqH7Vq1cH4JNPPgHc/Ferwb5kyRIg3N0rlaSKiIiISOio41SI5NQhxPot2/XMnDlzIpejV21LcowdOxZwc/v8Hn30UQAeeOCBpI0pJ9FP+yJFiqRwJBLNUnir2OHvJHPGGWcAbv4a5D9BDWKvJ2effTbg5sxFsyR32LBhcX1skUztOPXyyy8D0LNnTwAefPBBAB555JGkjWH69OmA61JpFQRGjBiRtDHklZJUEREREQkdJalpwDpKValSJeZ+6yoErl6aJN5vv/0GQJ06dYCsq6Jt/tbs2bMBNzdVJIh1/3rnnXc820uWLAnAvHnzAKhfv37Cx3LfffcB8OSTTwZe59NPPwWgZcuWCR+PFA6ZlqRa/WF7n7B1AvPnzwfy302wIK6//nrAnQmxMzN29iRMlKSKiIiISOgo2kkDQav6ixUrBsARRxyRzOHI/3v11VeBrAlqiRIlANc5JB4JqvVs/+qrrwC3Ov+UU04BXKUISU/Lly8HYMyYMTH3W0/uZCSo5uGHHwZc/++FCxdmuc4TTzwBKEkVCWId3Wy++SuvvAKkJkE1Tz31FOBeb+68807AdUsMEyWpIiIiIhI6+idVREREREJHp/vTQNDpfivUm8rTBoXRvn37AHjxxRdj7r/hhhsAN/E/HiZMmBDzMVUKKDM8//zzgCv4bY477jgAbr/99qSPydqr2qnBCy64IMt1rL3iN998A7jGACKF3datWwF45plnALcoyQrpp5It3rr33nsBt0jy448/BqBNmzapGVgM+u9GREREREJHSWoaWLt2bcztam2ZGlYeyN820oqq33HHHXF/TB0DmWnz5s1AcDHt3r17A/Ev2J8X7du3B7xnBhYtWuS5znPPPQfAW2+9lbyBiYTYgAEDAPj111+B7Eu5pcott9wCQL9+/QC3qEtJqoiIiIhINpSkpoGgOalK0VKjf//+MbdfcsklgJtHGE86BjLToEGDANi9e7dne8WKFQE35ziVrG2ulamBrOOyswuWFum4lMLK5pXb2ZHGjRsD0KJFi5SNKUj58uUBuPzyywF3JmT9+vVAOJoDKUkVERERkdBRkpoGtm/fDrhEwzrZ1qhRI2VjKoysmLm1pvS7++67E/bYQXNSdQykt5EjR8bc3qNHDwDKlCmTzOFkq2vXrpHL999/P+BaMlvFi9GjRwOJfS5I/lgbZ3BnZuxrq1atALVujgdrFWxrFtLhuXDTTTcBLv0dPnw4AH//+99TNiajJFVEREREQkcfm9LA4MGDAddezVK1UqVKpWxMhZHVKvWz1qRNmzZN2GNv2bIl5vaqVat6vt+/fz+Q2tXgkjNL5X/44YeY+8MwF9XP6qaCS1WfffZZz3XsOZIO6VFhsWPHDgDKlSsXeB07Do899tikjCmT2dkES6WvvPLKVA4nV84880wAGjRoALi620pSRURERERiUJKaRkqUKAFA7dq1UzySwikoSe3YsWPCHnPPnj0A7N27N+b+nTt3ArBx40YATjzxRMDVtuzcubPn+9KlSydsrJJ7OaXyiagQEU92zPuT1FmzZgGwadMmIGvSL8lXtmxZAA4//PDItl9++cVzHTs7pyQ1/2xe9nvvvQdAy5YtAahUqVLKxpRXtsrfEtToesjx7KCYF0pSRURERCR0lKSK5OCnn34C4Kuvvoq5P5FJqnUrCWKf1tu1awfAtm3bAHj77bc9X23+ctu2bQGXsILrJW018yTxLG3xS+SxFE9nnXUW4JJSS06tRuQHH3wAhHNubWEVnej5k1SrICP599lnnwGwdetWAC699NJUDidfOnToALgk9cMPP4zsU5IqIiIiIvL/lKSK5GDixImAq09rqlevDsBpp52WsMf2Jx5+Ng/Kkqsgu3btAlyCF53kFStWDIA//elPgOuc1alTJwCOPPLIvA5bAtjcv1Sk8vF0yCH/yzcuvPBCwNVVNDbnVklqeGS3uj+nMzaSs5kzZ3q+b926dYpGkn8NGzYE4J///CcA559/fiqHAyhJFREREZEQUpKaRNbxw/p022rL6PqDEj7WQcTPUiTrBJYIuU04bL6Z9V4eP348AJ988gkQXI8T4I8//vBc17727NkTcPMPLWHt0qULADVr1szlTyFm+vTpMbcfddRRQGJT+USw5NefpNrPaWcfEvkckdzJLkkNOmNjXZMsGbfXo5IlSwJw5513xnOIae3zzz8H3DztWrVqpXI4BXLFFVekeggRSlJFREREJHSUpCaRdY7q06ePZ7vN/bP0S8Jl3rx5Mbc3b9484Y+d2yR10KBBgFvlf+ONNwKuN7fp1q0b4DoeQfDPZyu1bdWqfbX0pHHjxoBLVu1rvXr1cjXmwujrr7+Ouf3ss88G0i9xtHH72XG7YsUKAOrUqZO0MUls0XVS/YJeZ7777jsAbrvtNs/2GjVqAEpSo9cpzJ49G4BzzjknVcPJSEpSRURERCR0lKQmUdC8nzJlyiR5JJIbli6sXLky5n5LEhPJarQGsfTSOoWYoGPt5ptvBtw8U4BVq1YBLskfN24c4OZYWaLqZ6mgfbXaeieccIJnbDaXFaBRo0bZ/jyZLii1TsaxlAiVK1cGXLJm1QuM/bxKUlMvP6v7g9LXnKqOFBbLli2LXLYa1UFnFyR/lKSKiIiISOgoSU2ioE+r2X3CldSxFMhfH9W6NyVj7qXVq/Oz1bUvv/yyZ7uNdceOHTFvFysZsX7dvXv39nzdsGED4Gqqjh07FnArt61Gq9+SJUsAeOyxxzxfwa14tbmxN910E5D5tVjt7xKUpKZ7wmxJsD9JtZT9sssuS/qYxCs/q/uDbmOvL4W9esOsWbOybIs+SyUFpyRVREREREJHSWoSKUlNL0GpV4MGDQAoWrRowh570qRJnq9+I0aMAFxNPmMJR9A80rwca5Zu2jxW+2pzr6wTl81htfqqVgc4Fpvf+/DDDwPw+OOPA27e6q233gokp3JCMlmd2qDEKl3npBpLgu2YMEHPIUm+/KzuD3q9sATVan8X1vew+fPnZ9mWbrWOw05JqoiIiIiEjpLUJMrrvB9JrW+++Sbm9kSmXtu3bwdcnVO/oNX8Jqe6qvE41ipWrAjANddc4/lqKa6lv5awfvjhh5Hb+ufKWrerd955x/PV0mrrevWXv/wFcPOB001QomidpvyJeLoJmlOrJDU88rO6P6fXC3tPK6zvYatXr45ctudw6dKlUzWcjKQkVURERERCR/+kioiIiEjo6HR/EuW1YLKkVlAR/xNPPDFhj2nln9atW+fZbkXT/SWn/IKmlFiJmMMOO6ygQwxUtmxZwE1FsK/RC6nGjBkDuDauX3zxRcz7WrBgAeBKVD311FMADBw4EIAOHTrEdeyJZg0T/BJ5LCXTSSedFHP7pk2bANi1axeQvtM1MkF+SlDZc/qQQ/6XZ/kXZOa2bXOmij7dX7NmzRSOJHMpSRURERGR0FGSmkQqQZVerJi9X7Vq1eL6ONELi6y0lN9LL70E5LzAJugYswQ1FUW3rfEAuAVQ9nXu3LmAS1ZHjx4NZC1jZSWcLrjgAsCVrBowYAAA1atXT8jY4yVZx1Kq5NSMwX7+4447LhnDkRgqVKgQuWzvOfbVztT4+c/A+BNXJakuSW3ZsmUKR5K5lKSKiIiISOgoSU2ivCapzz33HAD9+/cH3NzVjh07AvD000/He4gSZePGjTG3x6uFZ07lpsAlhldccUWu7jPd0vomTZoA8PrrrwPumH/ttdcANxfVflfG30Dg0UcfBaBXr15AYhst5EdQkpop7WBt7mKZMmUA2Llzp2e/ktTUu+qqq2Jezg1771GS+j+///47AFu3bo1sO+aYY1I1nIymJFVEREREQkdJahJZ4XK/4sWLx9xun9IshfB/lfizVcgQnBLEK/2ylfw//fRTln02R2zw4MF5uk9/gmUs6Qq7SpUqAdCnTx/ANQq44447ABg1apTn+taW0X6XEyZMALztORNZ0SC3Mj1JNUcccQSQtTKGXrPSW7FixWJuD3pPy3TRc1GNVvcnhpJUEREREQkdJalJtH///pjbg+bP5fX6UnC5SXwsLcovW80ftJIfcr+a3y/omDn00PR8qtvv+u233wbg2muvBaBHjx4ALFu2zHP96dOnA3D++edHtn300UeAd3VzshWWJNV+HiWpmSWv71GZbsuWLVm2FfR9QWJTkioiIiIioZOe8Uqa8nfrMNbNI7fXV5KaONklPrZyOb/zO21lbDxX8/sFJRtBx1i6adWqFeA6Uj388MOAqwJgojtZWf1CqwRQpUqVhI/Tr7AlqX5KUtNbXt+jMp2/jjN460FL/GTGO5eIiIiIZBQlqUmU1yQ101OxMMqu7l/FihULdN9Bq/ltRTvkfTW/n6XspUuXBtwxVKJEiQLdb9jYz/Pkk08CLsGz3/HBgwcj150/fz7gEtXZs2cDya14YFUI/Ap6TIVN0M9TWOtpZopLL70UgPXr1wPudebYY49N2ZhSKVaSmmmvsWGh/3ZEREREJHSUpCaR1VazdMuS1aC5LHlNXqXgsqv7l98V8ra63Loq+Q0cODByOa+r+f0s8bCvhcXtt98OuHnDN910U2SfPY8WLVoEwHXXXQfAO++8k7TxBR1X6Vp1IUjQz7Nv374kj0TiqV+/fqkeQqjs2bMnyzbNSU0M/bcjIiIiIqET+di7atUqAMaOHZuQB7IaYldffXWWfVZz7I033gDgoosuAuD444/3XM/qSy5ZsiQhYwQ3b61x48ae7f/9738B+PrrrwGX3Pj1798/bmP56quvYm6Pnm/n98orrwCuR3abNm08+xcvXgy4dC8RatWqBUDnzp0923/88UcAxowZA8Dll18OQI0aNTzXe/fdd4HYXT1yYr3bg7p45SS7un95Tb1sNf8NN9wQc39BV/JLVtdff32Wbf7f/7/+9S8Azj77bCD4uRwP9lwNU6WOGTNmADB37ty43/fChQtjbrck1V7TrJ7trbfeCmSdzxc9N9v6pMebdTOLnhNu3nzzTcB1K+vUqZNnf6LfLyH4PTMd3y8h9++ZmzZtAtxzw36OdevW5XucPXv2BLKmnfl9v4z13jxu3LjAfdmxx7b3AxP0fgnxfc/MrQsuuACA+vXrJ+wxYlGSKiIiIiKhU+Tg/3/Unzx5MgDt27dPyAPZJ61YnzLs03eDBg0Al3Rcdtllnut17doVyNq/O57+8Y9/APC3v/3Ns/2ee+4BYMCAAUDW1X2WlCQjGbE5da+99lqWfdWqVQPcpx7/dezTt6UIiWDHkH0CNlOnTgVcNyBLU84991zP9Vq3bg3Av//97zw/9vbt2wE4/PDD83xbgPHjx0cu+z/Z2ifI3CYT1h3JPxfVkhubI5ldpxK7jqUndpzVrl0bgGOOOSZXYynMLEn1PxdKlSoFwNKlSwE4+uij4/7YlswHpfD22P4ULJHuuOMOwL3WJYPVBraf86677gLg559/BqB8+fKe60fXso3V3Scevv32WwBOOumkLPsaNmwIuGPi/fff9+xP9PslQKNGjQBvGglZ3y9tbvWf//xnz/WS8X5pSbh1yDP2fvniiy9GtvnncdpZhmSssdi8eTMAlStX9mzP6f1y5MiRAHTv3j1hY2vXrh2QNa0Ner+ErO+Zdh27TSJY17+rrroqYY8Ri5JUEREREQmdSJJqc4Z27NiRkAeyJCFWbUJLh6yWnq3QLVasmOd6Njdp7969CRkjuHTFP0fKklP7NBiU1FmSFw99+vQBYOjQoZ7tt9xyCwAvv/xyltvY79B+d/bzGFtlvHPnzriN088e2/6Oxn+M2Xwvf/psY8tupX0QfyKTVxMnToxc7tixo2dfnTp1AFi+fHm292GfiDt06BBzvyUbV155ZY7jufDCCwGYNGmSZ/uzzz4LuERKgtlztkmTJoBL0IwlTm+99VbCxlCkSJGY2y0pP/HEExP22H72Whar1mNB3X333UDWRMpesyy93bVrF+BeR/2/n+i6qonqalSuXDkgdpJndW1tX06vZYkQ9J6Z3/fL6LOYdrbK2GOsWbMm5liaN28OuOPV2NxdIcVEDAAAIABJREFU/7xZ//slJOc9M0hOx1le3y/ttcLWQIBLOk899dQ8jS2v75cQ3/fM3Ao6zhJNSaqIiIiIhE5kopR9aitoEpUf9mk1p8e2Ljr2NZlsVWBOtdDi+fvzf6oz2SULlg4EsU9Bqfg75/YY83+iTKbsVvDnVOsxp9X8Vu0gNwmqUc/sgrOzIi+88AKQNUWyZNtWHzdt2jTuY7Dkw189IhX1Q3P7WpYfQcerPa/sb5FTd56cXscSLTq1iiUd3y+ze9+04zPoPj/99FPAJaT2+hM9dzhaXo6xVPwOTX7fL63DXTT7ncTr58nLMZbK98xEU5IqIiIiIqGTWe1OMoxStOTLrr5qTnP4rG/8Tz/95Nluq/mjaz/mVtAxkF09V4mtVatWgFvJa/N8bZWx/f1mzpwZ98e248rmYppYnWvSWdB6gfzWLZb4ye59I6eqNAXthJdpYs2vtTNpEl9KUkVEREQkdPRPqoiIiIiEjk73h1jQKRid6k0cf7HnaFZU3E4PWzkTKznlL9pvrNB1dkX7gwQdA5rykX/PPfccAFOmTAHc4qXPPvsMcAWx/QusCsKOK3+JH2sBmSk2btwYc3t2zytJjuxeM5JRUD+T6HR/8ujIFBEREZHQUZIaYtZyztpz2qddTWJPnFilRYwlbpao2mIQa/nol5+SU35aPBd/1t7WWgP7C89bW+Z4Jql2XPmT1A0bNsTtMcIg6OfJ7nklyZHdGbhktPPOJLGS1OgGFBI/SlJFREREJHSUpIZYzZo1PV8l8aKLU1uK6U8tLS2y4vBr16717C9IySk/zUtOHGuH6k9Sx48fD7i2w9k1eMitoCRRSaokS3YtM5Pd6jLdaU5q8ihJFREREZHQUZIqEiU6ubRU1b9i+f333wdg+PDhMe+jIKv5/YJa4/7+++8Fvu/CrkWLFoBL+SwFtDnH06ZNA6BOnToAHHfccfl+rExPUu1sw+bNm2PuV5KaetklfTm1gRUvO1sWfZbFf0ZN4kNJqoiIiIiEjpJUkQCW/viTVKuz6ReP1fx+5cqVi7ldK0kLzuYcW/UMm4NqxowZA8DNN98MKEnNjqXPVgHDT0lq6mX3mhFrjqUEszm8xx57bGTbsmXLUjWcjKYkVURERERCR0mqSIBq1aoBMH/+fM/2n3/+2fN9PFfz+wUlHHldSWpzBtVZJqvLLrsMyJqk2ir/hx9+uMCPYceSn79uaroKmo9nc7yjq2ZIamSXpAadsZHs1atXL3L5m2++SeFIMpfesUREREQkdJSkJlGfPn0AGDt2LODSsN69ewNw3333pWZgEpN1Jpo8eXK21xswYAAQn9X8fnmdk7pt2zYATjnlFM/1du7cCbjV15b+ilvlb38/m4Ns8ywXL14MwFFHHZXvx7BjyW/hwoVA+ifdQSlS3bp1AXU0CoPszr4oSc2f448/PnJ50qRJgHutLVOmTErGlCg23zwedaPzIj1fEUVEREQkoylJTaKtW7cCsGLFipjbJVyC0i/TqVMnAK666qqEjSGvSWrp0qUBWLduXba3U5Lq+Ff5++cW25mP1q1b5/sxGjVqFHO71btdunQpACeccEK+HyOV5s2bF3N748aNkzwSCaLV/fEXPSfV2Cr/oOd8Oomux92vXz8AnnzyyaSOQUmqiIiIiISOktQkCkrF1PM3nKZMmZLt/qB6qfFUtWpVwNXjs2PIuiD5lSxZEoDixYsDsHfvXs9+HWvBLBn3J6mzZs0q8H2XL18ecLVWf/jhB8/+r7/+Gsi8JDUT0qRM0a1bt8hl+7tYuhorEZScxfq9LVmyBMiMY7979+6RyzbXNtmUpIqIiIhI6ChJTaKgeT/qHhQe0Sv5rU5mEJv3Wbt27YSNx9I9+5pblrjaCnWjYy1YkyZNYm631f179uwBoESJEvl+DJuj6U9SLYns2rVrvu87Fawqgb+WsNGc1PA49dRTY16W/Is+vq2CxcyZM4HErlVItKeffhqAd999N7ItVRUglKSKiIiISOgoSU0i9WEPL/sb3HDDDbm+jc0jPOeccxIypoIISlI1JzVYxYoVAahZsyYAq1evBuCPP/4AXE3ToMQ1N2yemlUMMHYspZvly5cDsGPHjpj7M2FeXmH26aefAtCjRw/Ava5Y5ZORI0emZmAhEf2eftpppwHud5aObB1GrJrtzZo1S/ZwACWpIiIiIhJCSlKTSKv7w+uOO+4AYvcgtzmINifRTJ06FYDbb789waPLO81/zr9q1aoBLkk1lnYWJElt2rRpzO1WQSDdutV88sknMbfXqlULgAoVKiRzOBJn1n3N6vgaf9UQgZYtWwJuPuf69esB93oSZt9//z0AV155JQAnn3wykPU9LxWUpIqIiIhI6ChJTSKlW+Fjc3CGDRsWeJ1bb70VgP79+3u2W5IaxvRL85/zzlaqz54927P9mmuuAeD8888v8GO0aNECcMeKHTu7d+8G3PFo3a/CbsKECTG3d+jQIckjkUQIOsunDlVZnXfeeYBLUm1uapgrdthccqseU6RIEQDee+89AC699NLUDCyKklQRERERCR0lqUmU3zmpvXr1AtwcObu+dTwKmucmwXKzmt8+XT722GMADBkyBMiafn388ccAdO7cOTGDzQfNf867l156Keb2UaNGAfD4448X+DGsI1jbtm0BGDdunGe/JZNhT1LtOJoxY0bM/R07dkzmcCRBgs68pKpmZpg1b94ccN3+wpykHjx4EHAdpb777jsAPvroI8B1xgsDJakiIiIiEjr6J1VEREREQken+5Mov4tZpk+fDsC3337r2W6FtHW6P++s5NSaNWs8262gO8DgwYMBd4q2TZs2QNZ2qXaKNkyn+6tUqRJz+4YNG5I8kvCz8iuxCliDO1aOOuqouD2mnQ73n+6fNGkSAPv37wdcq8Ww+fDDDwHX6MDYgppzzz036WOS+AuaHqTT/VmVLl0acMe+vU8MGjQIcO8jYfDEE08A7vXn2WefBeKzODTelKSKiIiISOgoSU2ioLId/8fenQdaOa7/H38bQiqipBQVpVGmBhGZSwOVwzGWksyR4hzpGCJzyZykMiQ6iGNIIkJJnDQQGdMRSpGxUvx+f/h+9r2Gvfa41trP2vvz+mfvnmftte72XmvV/jzXdd0aA5EqPdl1112B5CQ1MQW0whU2cuqOO+7I+7x27dpx55R+JSapzz33HBBSpUqVKqVnsaWg50wiP2cCNQ/069cPgN9++y3ufPPmzQG4+uqr0/7YXbt2BcJrXa/9NWvWAKEhSWNtoiYxARaNnorCa8BKzyOoik/vJ9roQq+VU045pczWJLpSc+WVVwJheL+auxo0aADA6NGjy2B1+XOSamZmZmaR4yQ1ixKTOVGio23U6tWrF3feqVjpFTZySilpQeNCunXrBsCWW/71stm0aRMQ0i+NKtJYj7KU6jmT37avFZVS8zfeeCPuuNLNiRMnAmFb3HSqUaMGEIb7v/rqq/muLUpJ6vLly/M+17DvRBrbZuXDihUr8j2e6t8yC70Jeo3ff//9QNkmqR9//DEQ/n3be++9gXBFUeP3NOZy5513zvYSU3KSamZmZmaR4yQ1i3bYYQcgeUtEUTKamKQm/lmcihXd4MGDgdTd/BrUXxD9ZnziiScCITkVba4QhSQ11XNm5cqVWV5J9BTWzT9kyBAgO1MzzjvvPCA5Sf3Pf/4DwNKlSwFo0qRJxtdSmNg6NV1FEE0+cJJavqT6NybV+4uFKy+nn346ALfffjsQ3ncaNWqUtbX8/PPPQHhdqlZcfRXaeEBpb9OmTQFo37591tZYGCepZmZmZhY5TlLLgOq5lOLpt9JUsy1dk1py2rJ03Lhx+Z5X7V9xaqwuvfRSIDlJ1fQFbS13zDHHFG+xaaTfhN99910gPIdSPccqgqJ2819zzTVZW5O2P91jjz0A+Oyzz4Cw1pEjRwIwduzYrK0pkTq8U72GAAYOHAiEZMbKh1T/xqT6N8mC/v37A+EKxD333APAqFGjMv7Yev9QmquZ6ppuU79+fSC8ppXyluX7TCpOUs3MzMwscjb7f/ovt0XWK6+8AsCRRx4Zd1yp2KpVq7K+pqhTN3/Lli2B5ERA3fypupSLQrtzvPzyy3HH1bGtWZcWDaoNu/jii+OOq5t/zpw5ALRt2za7CyOkLOeff37ccdW3KWGtW7dudhdG2J3miiuuSDpXrVo1ILy+PD+zfPj999+BsEtS4n8TPvzwQyDUMFpqmomsf8dVZ640MxN0NUgznm+77TYgvPetX78egMaNGwOhT+aDDz4Awnvi/vvvn3ef6vjXbnPZ4iTVzMzMzCLHSWoO0IyzVB2+69aty/s8SvsDlyXNQ02so1MdsH5jLM28P9W7durUKd/zeuwzzzyzxI+RSHWUSq7Uvdm6deu0PUZ5o3orzQZMrEX9xz/+AcCNN96Y3YXF0Gt4t912A2D16tVx55XGaHezbFAdm75vse8zMmjQICA7dXZWMkrC9fOEUFPavXt3IHmSxRdffAHA7rvvnu99apdEJXCWmnoV9Do64YQTAHjsscfS/lh6je67775AuCr00EMPxd1Ok2jUXzFlypS4tYmTVDMzMzOzfDhJzQH67WjbbbfN93zsb8jZnMEWRYWlm4888ghQ8M5SxaVdgRJnXW633XYALF68GAgpWUm8+OKLQPLEAN2ndgqxv8S+rXXs2BFI3llK3fzz588HMrOzVHFp2sRFF12U7/nx48cD0Ldv34yt4c8//wTg4IMPBkKtbizNfF6yZAngHYiirEOHDgDMnj076dy9994LwDnnnBN3/PXXXwfCa0eqV68OwA8//JD2dZZ3moms77mmwHTu3Dntj7V27VogXFnVR+0ap6S1YcOGALzzzjsAbLbZZnH34yTVzMzMzCwfTlJziHY8+v777+OOxyZ4hx56aFbXFBXZ6OZPZdmyZQDstddeQKjXEiWtSnnVOVkcixYtAkJdk2y55V+jjjds2ADA5pv7904IiSQkp5JR6OZPRW/Hhx12GJA8IULp/IIFC/KOKQ1JF9XmXn755Slvk4krEpYZ6iJXihbr2WefBaBbt25xx9Xdr/c2vZ/qfVb701vRad6wruAotdT7UGmutBVGdfhK1XUFRIl5qvdAJ6lmZmZmZvnwjlM5RB2ZiUmqd56CwYMHA8nfC3XzjxkzJmOP3aBBAyB0TCbWd82cOROA448/HoDHH38cKF4NZKq9srWH+jfffAOUzRzNKNE80YJSwCFDhgDRSlBF6cqECRMAaNWqFRDSeSVZsbWCM2bMAFJP/ygqzVIcOnRovudj0zMnqNGn2uKvv/465W1S7RylncP23HPPuI9WcpohPGnSJCDUomre9ptvvglkZldA1bC/9957QHh/ieJ7YCInqWZmZmYWOa5JzSGaaZc4K3HEiBF5n6dKQcqrwrr5H374YQBOO+20rK1JHfjqyE+kumHNpivOb86aS5g463Pu3LkAtGvXrniLLSf0NqbvrWqtYjVr1gwIaUIUuvkLo720zz777JS30fNn6tSpABx00EFFum+l8MOGDQPgpptuyvd2tWrVAsKUithjFl1KUAu6urJmzRogXHGy7HnmmWeAcIVN/Qa6MlKan4muvGgHO81JVX3+6NGji3Q/Sn0hTBfKdj2yk1QzMzMzixwnqTnkqaeeAkJNqjrZ9RGgatWq2V9YGSism//YY48Fwm+r2aTfYvUb58svv5zv7ZSKnnHGGXnH+vTpA4Q9lbU3uqgzVLuQiXYv+dvf/laqteeqO++8Ewg7IMXSxAPVfOVCHVYiddwr9SyIatw0l1Edukrf//Of/wDhe5aqpl110LpaoSTacoPmAh9yyCFJ5/TvhHass7IzceJEAPr16weEKT7Dhw8HYMCAAUDRpsLoilrv3r2BMENd93H33XcDYSpMLnCSamZmZmaR4yTVcpJ+M7z//vvjjkdpJxzNGjzllFMAePLJJ4v8tUr75s2bl/6FmRVAKb5q4zRn03LLPffcA4S6xFh6f3n77bezuiZLTVNgLr74YiDUgO+xxx4AtG7dOu+22llSV1V1tUPTTfTvoP59VN1rLnKSamZmZmaR4/+kmpmZmVnk5E71rBnhEmTiZX7RdphleZlfNBBbo6auuuoqIKxRzV/5qVy5coZXZ/YXNWSo0U/NFR4zldvef//9lOdatGiRxZVYUWj7bI3Iu++++wAYP348ED/SUFus6rXbpk0bAE4//XQAzjzzTCD1JjC5xEmqmZmZmUWOG6cs8mITx7322guA5cuXx92mLEdOFZfGvowbNw6Au+66K+/c559/DoQt81JtCGBWUtp69cILLwRCo0bDhg3LbE2Wfho9pVFUsUaOHAnAJZdcktU1WXp89913QBglpUap8shJqpmZmZlFjpPUCNLoItU0VnQaNwWpR0598MEHANSpUyd7C8sAbVX5xx9/AMlDl5944gkATjrppLjju+22GxCS2MLoOQahvqk427OWFY1Y2WeffQBYt25d3PkhQ4YAYfh9RTZq1CgALrvssrjjBx98MJD/1rFWfmgovMYUxZo+fToARx99dFbXZFZcTlLNzMzMLHLc3V+G5s+fD4StDtWNud1228X9uaIqrJMfQqd8rieoouQ01bZ1e++9d77HtbWltr5M3E518uTJAFx77bVA2C4PoHv37kDYdjeKdMHnrLPOApITVG3Zed111wFF20KwvPvwww/zPR67jbKVP9988w2Qf4Iqfg5YrnCSamZmZmaR4yQ1AqZNmxb350qVKgEVtzZV3e/9+/dPeRt185922mlZWVNUaMvKrbfeGoANGzYAIWlUbe4BBxwQ93U6n1+6lguJvSYgJNZRKjGdMGECEL4vlvrn6hStfEv1c4/tAN9ll12ytRyzUnGSamZmZmaR4yS1DDVv3hyAzTf/63eFP//8E4CNGzcCsHTpUiDMBq0o1KGdOAsVQhowZsyYrK4pKpQcNm3aFAj1Z4WlYwWdV8f8+vXrAdhmm21Kvc500dr++c9/5nt+8ODBALRr1y5ra4o6peZLlizJ97yT1PJNV1FU069kVa9vs1ziJNXMzMzMIsdzUiNgzz33BOI7rgEeffRRAE4++eSsr6ks6Df/gmb3PfTQQ0DYo7ii+vXXXwGoUqVKkW6v+mbdXvNYY2naxL777puOJZaK3pYOO+wwAGbNmhV3Xt382ufatajBF198AcDuu++e7/k1a9YAsOOOO2ZtTZYbdDVPV/fMypqfiWZmZmYWOa5JjYAWLVoAyUlqLnRdp0Nh3fya4wlOUKWoCapoQoSmAxTU5R+FJFXd/IkJqrv5C5fqfaN27dqAE1RLtnLlSgAaNGgAhJp31S+PHTsWgMqVK5fB6qwic5JqZmZmZpHjJDUC9Nvq008/HXdcMy/Lu1Td/Orkv++++7K+pvJKz7Wozkt1N3/peT6qFVfiBIAFCxYAob7ZCaqVFSepZmZmZhY5TlIjIFXCUZpk65dffgGgatWqJb6PTFM3v+qdEt1+++0A1KlTJ2trKu/23ntvAP79738nnZs3b162l5NH3fxnnnkmAL/99lvceXXzDx8+PLsLKyOrV68GoFq1akDxam+rV68OQKtWrYAwb9lJqqWS6qqd+iXMyoqTVDMzMzOLHCepEZAq4VA9kFKlbbfdNu685lrecsstecdmz54NQL169QCYM2dOehebBkXt5ncnf/q1b98+5TklqdrxrFKlSllZE7ibP5Fqch955BEA9t9/fwAuuugiAE488cSUX3vuuefGfdRM3HXr1mVmsZbzXMdsUeUk1czMzMwix0lqBGjHKSVXSrK0+4f24G7dunXc1ylhfeyxx5LuU3Pvorgfu7v5y4729d5yy/DSV9Km55MS+mx00H/++ecAXH755fmev+SSS7K2lijRFZENGzYA4YpInz59in1f+lmrvtUskZNUiyonqWZmZmYWOU5SI0AJqhLVxE5L/ZabmKS2adMGiK/TU/KivdrfeecdAA4++OB0L7vYXn75ZSB1N//o0aMBd/Nnkuqa99lnn7xj7777btxtlOJlMr1UN3+/fv0A+PXXX+POa8ebitLNL+rq/+ijj/I936FDh2wuxyoIXa1L5CTVypqTVDMzMzOLHCepEaIZlolJqrquzzjjjLjjSlDV+QvJ3fxKxcoySS2sm79bt24A9O7dO2trquhiE7nEJPXNN98EQj1oJtx9991A6m7+iRMnAtGqpc6GVNM4dtxxRyDMizVLByX2P/74Y77n99prr2wuxyyJk1QzMzMzixz/J9XMzMzMIseX+yPkwAMPBODRRx8FwuiYVJdi5KCDDsr7PPFyoS7dlqVLL70UgC+//DLuuEZOpWqkssyJfc6oYW2XXXYBoHbt2hl7XI2c0rD6RBV15JSker3qvWGzzTbL5nKsnEv1fFMTb82aNbO5HLMkTlLNzMzMLHKcpEZIz549gdAcoTSpSpUqBX5dbBNM7BapEJJVjfzJZhLzyiuvAKmH83vkVNnp3Llz3udKNxs2bJiRx9JzDzxyqjBqdEwUm3ybpUuq55tHnVlUOEk1MzMzs8hxkhohqgnUx6JSvVp+fvjhBwA+/PBDAJo3b17C1RWdRk6deeaZ+Z73yKmyV7Vq1Xw/zwSNm4LkkVObb/7X78kTJkwAKt7IKdH2xYnjwMTJlqWi99uSbHubqibVyb1FhZNUMzMzM4scJ6nlQGwHZpMmTQBYunRp3G30G3NRk9RPPvkEgP/+97/FXs+4ceOA5G7+7bffHnA3fyapvlQ/7zVr1gAwaNCgMltLqk5+gMGDBwNwwAEHZGVNUaUEVdsZizbs0BbIZqK67ho1agDQuHFjIKSgN954IxA2goi1atUqAD799NN879tJqkWFk1QzMzMzixwnqeWMatcSk1R1cQ4YMKBI9zN9+nQALrzwwrSt7aeffgLg1FNPBaBXr15AmGpQt27dtD1WRaNJCkceeWTccdWbDhw4EAjbjmaSuvlTdfKDu/kTpeqy1pbHSlTN5O233wZg48aNACxZsgSAL774AoivBU+kq1x6z12xYgUAO+20ExCuyJmVNSepZmZmZhY5TlLLGSWpDzzwQNzxmTNnFut+KleuDIR6p4IoOVu7di0Af/75Z9x5dXDr+Kuvvhr3USmf6u6UsOqjaq0sNX3vEr/Xv/zyCwALFy4EYL/99sv4WpTgJHbyx66vonfzJ0r1+nRtoKWS6jnTtm1bACpVqpTya/V+8dVXXwEhWV22bFk6l2hWak5SzczMzCxyNvt/sdvBWM7Tb8a77rprvuffe+89APbZZ5+0PeY555wDJO8sVb16dSB0Li9atAiAp556CoDnnnsOCAlsKj169Mj7fOrUqWlYcfmln6uSU7njjjuA9NYYJ1I3f6tWrYD8a1GHDBkCJO+MVlFpxqUmdCR297/00ksAHHXUUdldmEXe3nvvDYT3VRkxYgQAQ4cOzfqazNLNSaqZmZmZRY5rUsuZevXqAcmJWuvWrYGQ3KSDOspTzT0dPXo0AHvssUfcR3XzqytVtVVKSZ9++mkAVq5cCUCzZs3StubyTjXJiUmq5qZmIknVxRjtMJaYoKqTH+Daa69N++PnMl1F0NUCTdVQTXHHjh3z/br3338/7/MnnngCCPWr7du3BzK/k5iVjeXLlwPJCapoRz+z8sBJqpmZmZlFjmtSy6n58+cDsMsuuwBQu3bttNyvusUBWrZsCSTvLKXf5J999tkSPYZSpDlz5gAhHQZo0KBBie6zopg8eTIAp5xyStxxzUNUzXI6qZv/ggsuiDuuTv7YGaAVfWepwujqguYc6zWW6Oabb877/B//+EfcuQMPPBBIPXvVcts999wDwPnnnx93fLfddgOS34/NcpmTVDMzMzOLHNekllOZmod56aWX5n2e+Bu7uvkTu/yLSwmc6ivT6fLLLwfgu+++A+D4448Hwk5NBc0WzAWp5mpqRxnNQUxHIq1u/sQkTy655BLA6Wlx6PmXKkGVglJSJalWPmkqSiLXolp55CTVzMzMzCLHNalWJOrkj53XmPjUmThxIgB9+vQp0WN89tlnAIwfPx4IneBKVktDda516tQBYNWqVXHnVbM7YMCAvGNnn302EOp6c0n9+vWB0Aks2omsX79+Jb5v/dwPP/xwAF577bW48+rm10xe7yqVPps2bQKgVq1aecd++OGHuNtoSkbsfGHLfb/99hsQdgFcv3593PkXXngBgGOOOSa7CzPLICepZmZmZhY5TlIrCCUwib99F0bd/O3atQOSkzkofTf/999/D4T9pFXreOKJJwLw8MMP5912q622KtFj6O+tztgnn3wSgLfeegtIToUBttzyr5JtJVLqXk81uzJKNLNUqbRoRq12/SqJonbzuxY1/WbNmgXAoYcemnROz1fVW6tG3MqHZ555BkhOyKtUqQLAmjVrANh6662zuzCzDHKSamZmZmaR4+7+HLJhwwYAXn31VSDsOqP90Aui+Zm9e/dO23q22GILAPbaay8APv74YwD23HPPYt2PEp8uXboAcNdddwEwZcoUICQEEOrtqlWrVqzHUF2kOs71Ud3uY8aMAULNJsDq1auBsKOPPrZt2xaAuXPnArDZZpsVay3Z0L17dyA5SZ0xYwYQnkuQOnn5+uuvgdBNrJ+H5tcmcjd/5hV0tULTMJyglk+puvo1mcQJqpVHTlLNzMzMLHL8n1QzMzMzixw3TuUAbZHYunVrIDQzqVEldpySxpMkUvNROi/3p9K8eXMAevXqFfdx3333LdLXjxgxAoBhw4YlndMmBdOmTQPiR/GkQ2xj2eOPPw6ERqF33nkHgP79+wNw//33p/Wx0+nXX38FwvMh9vI+wIsvvpj3eadOnfK9D32vNUoqlSZNmgCwYMECwCOnMknjvfSeEGvkyJFAKLuw8kH/RGtr42+++Sbu/Lhx44DQLGlWnjhJNTMzM7PIcZKaAzQJARFxAAAgAElEQVSIXgPnNWJGHnroobzPTz/99HzvQ01An376aYGPpYHRp556KgDffvtt3Hk1DUFI2p5++ul8b5tIW3FqjcOHDy/w9koIzjnnnLxjf/zxBwCNGjUCYPr06QDsvvvuBd5XOihJ3XHHHQHYY489Mv6YpdW5c2cgfJ/kwgsvzPv8jjvuyPdr//WvfwFw3XXX5XteSf6bb74JQPv27Uu3WEvpk08+AQpuSlS6WtzGRYs2XRXRls5qoFLTpxoc9e+DWXniJNXMzMzMIscjqHKAEittdxebnEL8WJpUSWrNmjXjPqZy3nnnAcmpqMbaaAQUhO1CNSBfg/E1KF631XB+/eb/4YcfFrgGUe3nTjvtlHfs5JNPBkIifPDBBwNhLFcmUyRtNpBLlIjrZ6XRVLHb26aipDyVvn37Ak5QsyHV+CGAxo0bA05QyysN69cVD33UNtJOUK08c5JqZmZmZpHjmtQcomHyJ5xwQtzx7bbbLu9z1Z5WqlSpWPc9c+ZMIAyGTnxaTJgwAYAzzjijWPcLsHDhQiAkqxr2rnrJ4lD9Y9euXQH46aefgLCFqjryreT0sz/iiCOAkFInuuKKK4DUNauWPocffjiQ/89C3fzq7jeDsJHHjz/+CISrKBBq+s2izkmqmZmZmUWOk9Qc8vPPPwNh9uXGjRuTbvPyyy8DIQUrjGauamtT1Y2Ktip9/vnnS7DizHn77bcBuOCCC4DQra6ZrFWrVi2bhRWBJhRoW9moUY3x+eefX+DtGjZsCITauChuD5vrlIKpLju/17yughx22GHZW5hFXsuWLQH44IMPks7de++9QPzkFLMocpJqZmZmZpHjJDUHqTNbqWmsiy++GIDbbrutSPelbn79Zi3q5n///feBsNtJcSgxvOaaa4BQO6f7ToeDDjoIgDlz5gBht6PjjjsOCH+/Qw45JG2PWVKqnz366KMBOOuss4Do7BTzxRdfACFV13zGwsyaNQuIxvc4avT2qvnD6tQuqmeeeQaAHj16xB2PfQ1pbvKWW3pYi4XXcUGzo5WuandAs6hykmpmZmZmkeNfvXNQt27dgPyTVM1MLSxJnTx5MpCcoIq+viQJqvTu3RuARx99FIBp06YBMGPGDKB0ieqmTZsA2H777YEwzWD9+vVA6PLXR6WDqrM87bTTgOInW6WhbnjV07777rtAqO2E0MWdTUr7lOgmJqhNmjQBoFatWgC88cYbcecffPBBwElqfl5//XUgvGaPP/54IEzJOPTQQwv8el0R0Gxhvb43bNiQdxsnqBYr1Uzd2GTVCarlCiepZmZmZhY5rknNQdrBqaC945W8NG3aNO64uvm1A5EmBojSzR9++KHU61SCqkRVNaqtW7cG0pOoytq1a4Ewi1Ud6korEymBVaJ1yy23AMWfL1sc+t5rl6wFCxYAIaEEmD9/PlC6BLu4UnXza6czzabVcyqxhrZatWpA2KVs2223zdxic0y/fv2AMGdYOnbsCMBrr72W9TVZ+aaad72/ysCBA/M+v/3227O6JrOScpJqZmZmZpHjJDWHtWjRAoAlS5YknbvyyiuB0Fkvqbr5Ey1duhRIz37g2UxUE82bNw+Au+66C4ApU6YAoaavXbt2AMydOzftj52KkvD9998fCCkwhFmXmn2ZKeoAhtTd/IMHDwbg1ltvBULqrr3C1bEujzzyCACnnnpqBlacW/S90fcq8YqFdgPq27dvdhdm5daqVauAcBVGdfsSm6xqZ0GzqHOSamZmZmaR4yQ1h1177bVASE1jNWjQAAipnWrftBNVYT/2oUOHAjBixIj0LJayTVRFMyUfeOABAOrVqweEbv9sUv2sdsmK9eSTT6Y8Vxr6ucfuSJa4H7y6+VUzq9mzou/VpEmT4o5rfu9LL72UxhXnJqXKp59+etxx1euqflf1vGalpYksmkctO++8MwBfffVV3jFPhLBc4STVzMzMzCLHSWoO+/LLL4H4OZv6cWpfeHVmn3zyyQAsW7Ys7j5Uc/rxxx/HHd91113jbq9O73SIQqI6ceJEAAYNGgSE+ZMdOnTI2GOmcswxx+R9/uKLLwLQqFEjIOwMs9VWW6XlsVJ18kP4GWsO6oEHHpjvfejnoy5ipYN/+9vfgNDJns7nTK5JtSucUuiHH34462uy8m2fffYBYOHChXHHlayOHDky62syK62K+6+ImZmZmUWWk9RyYMCAAXmfN27cGAiJzXXXXQeEBE2UUqp+8IADDgDgzz//jLud9g4/9thj073slImqOk8T5/ylg7quVXepOi3VXT700EN5tz3hhBPS/vj5iZ3O0KpVKyB8L5R+JNaZFZcScXXya2ZrrKImLnqO6OenXZFcXxmuSGg+ceLbq57T7q62dFFyqiQ11Xm9t5jlEiepZmZmZhY5TlLLKXVsp+rmT5zT2LVrVwBeeOGFuNtpdyTtQZ4JSuS0I8q0adMAaNOmTcYe87PPPgNCPegnn3wCwGabbZZ3m5tvvhmAIUOGZGwdiRLn2Gr6wKeffgrA1ltvXaz7S+zmT+zkh1CXrG7+ypUrF3fZ9n/OPvtsAMaOHRt3XLvDKWmtyPW6Fm/OnDlA2HlO9ehFpSsg6u4XJavvvfdeaZdoVmb8TmlmZmZmkeMktZxRraHqj2J3FgLo0qULAM8//3zcce1wFDs/M9bbb78NQNu2bdO32AQ//vgjANtvv33GHiPR6tWrgVBz+9ZbbyXd5oILLgDCfteJKdgNN9wAhO9dab5HWo+SayW9JU03lcgqoZXYv4O6+bVupelr1qwBvCtSYTR7F2C33XYDYP369XG30Y5n+U1VsIon9p/dli1bAvDRRx8Bocb7+uuvB0J9cyLtKKUdprTjlIwaNQoIE0zMcpGTVDMzMzOLHP8n1czMzMwix5f7yxldTkwcOaVL6BoOr0tEifbff38A5s+fH3dc45imTJmSvsVGiC7PnnrqqXnHnnrqqbjb6DLc5MmTAbj//vsBuOiii4DwPX7nnXeAMA6sLBQ2cip2pFWPHj0AOP7444Fw+bpmzZoAfP311wBUqlQpgyvOXVdddVXe58OHD487V6NGDQCWL18OhI0PrGKLLbfq1q1bvrdZtGgREF7DiVQecNhhhwFhq11tebpixQogNGSZ5SInqWZmZmYWOU5Sy4HYsUJFHTmVisZBxSaKELZZ1SgkgAYNGpRwxdEVu5nB4MGDARg9enTcbQ466CAAxo0bB0DHjh2B0Lig5GPu3LlAdtOzwkZOJY6bgrDBwS677ALA77//Hvc1U6dOBULian9Zt24dEJqlIDS+ybBhwwC49tprs7cwizylnwCvvfZa3DltNzx9+vQi3Zc2/tDGLIsXLwbgsssuK/U6zcqak1QzMzMzixwnqTkscdwUJI+c0gijxCH9qWisiYaPq5ZOVH8JyQljeaXRU6rjvPPOO4Ew1km1q3//+9+B8D1Uaq0UOxsKGzmlcVMHHnhg0tf26tULCMmpKEFNPF7RPfDAAwD0798/6Zw2XdDrx3WBBvDf//4XgNatW6e8jRLRo446KitrMosyJ6lmZmZmFjlOUnNYqk5+KHo3fyoaBH3dddcBcM455wBw4YUX5t2mTp06xVxxblMdp7YbFA29V2KaWAumbQ/bt2+fsbUVtZt/5MiRKe/jmWeeAZJrT9XVry5/df1XdBs3bgTCtAcI319tjKAJEKlcffXVAGy11VYAnH766QDsuuuu6V2sRcLJJ58MwGOPPZZ0bu+99wbi68XNKjonqWZmZmYWOU5Sc5A6tlN18kPRu/lTUeeyOkerVq1aovvJFk0dULr80EMPAbDzzjtnbQ2aDKB6s/feew+Adu3aAWHL1c022yxtj6mf/ZFHHgmE7W0lsZu/oO1VlQyqyz+xU33EiBEADB06tLTLLvc0MSHVZAd9bzUZQK831Q4/99xzQKgpt9z25ZdfAtCoUSMg1K3H0nuW0nQzc5JqZmZmZhHkJDWH/Prrr0CoO0zs5Ifid/PnOqV/zZo1A+Czzz4DoGHDhgBMmzYNgCZNmmRtTZp7GDsLEcIMWtWlpUNpuvlT+ec//wnATTfdFHe8du3aQEiFVEdpxaedqWJ3qwLYcccdgTAVoEqVKtldmGXEwIEDgTAZJFa9evUA+PzzzwHv7GYWy0mqmZmZmUWOk9QccsEFFwBw9913xx1XJz+UvJs/16mG78QTTwRCjZ+SKXWud+jQIWtr6tmzJwBPP/00EOoPZ8+eDYQEpSQK6+YfNGgQEKY0FIe6+LWjmNJq0XzQfv36Ffu+K7r169cDUL9+fSDsUiaq91X9r+U2paO60pO4mxvALbfcAsCQIUOytzCzHOEk1czMzMwix0lqDlCN4+GHHw4kd/Mr2YLip1vqMt1yyy1Ls8TIePvttwHo3r07AN999x0QdgBSB60S10zSxAGlYvr5KRFXzeoVV1yR9zVt2rTJ9740OeDDDz8EQl2r9umW4nTzF6ZPnz5A+J5J8+bNAXj//feB4k0r+Pnnn4FQ79qpUycADj744BKvM5eMHTsWgLPPPjvuuJ6fSshV/2u5TbvQTZkyJe547IxpvU+kmgRhVpE5STUzMzOzyHGSGmGFdfOXpJP/22+/BeCOO+4AwjxV7SldXmpZ1eWv79Enn3wChNRPSd6ll16atTWl6pqPpXmnqk1U2jpjxgwAjj766Hy/rjTd/KkopW3VqlW+51UH3LVr1wLv58knn8z7XFMIVIupnZnmzp0LpHeGbJTobVa1iUuXLo07rysgsVdFLHfNmzcPCDOSE8XuRNa/f/+srMksFzlJNTMzM7PIcZIaYYV186smsChd4voxa36oZl2K9psvKOXLRWvWrAHg2GOPBWDOnDlx588991wgzC/cYostMrYW1ZX++9//BuD6668HYNGiRSm/pmnTpgC0bNkSgCeeeCLf25122mlA4R3CmrupnW+KQnWjL730UtzxQw45BAipfCqqE4bkWkzRXuaq4StvNF2iR48ecceVHOu1rHpfy23aXU7Pd12VaNGiBQALFy7Mu20m33PMcp2TVDMzMzOLHCepEVTUbv6SzKlUp/mwYcPijiud/d///gdAtWrVin3fUab5lEocVSepWaZPPfVU1tekn6tqOyGkq6rRTLcDDjgACElPUSTWw2oSROfOnYH49ZeUEv6PPvoIKH+7WWl6wZtvvhl3vEuXLgA8//zzWV+TZZ6unjz44INAmJV8xBFHlNmazHKJk1QzMzMzixwnqRGibn51U2u3ElFypf3oS+L7778Hwm/0ekwZOXIkAJdcckmJHyPKlGzo73nWWWcBUL169TJbU36UdCr5TlfSVpIkVVSvrBmtv/32GxA61tPhtttuA+Diiy9O232WJdXj6vueaObMmUCY4mCmWcLffPMNEGYfm1VETlLNzMzMLHKcpEbIhRdeCMBdd90Vd7wk3fwlfSwlrJozWl52oso1mr6grv5ffvkl7ry6hocPH16s+61UqRIAO+ywQ2mXyB9//AGECQrFoaR08uTJccdr1KgBhOefnvu56oQTTgCSpzLsv//+ALz77rtZX5NF2y233AKEucraPe8f//gHAO3bty+bhZmVASepZmZmZhY5TlIjoLBu/nHjxgFw5plnpu0xVe+qeielYqKdqPr27Vvix1i+fDkQdntyR2vh9LM/6qijAHjllVfizjdu3BgIcxYrV66cxdWlz4oVK4Dw/FN9qyjpL2wGazpp1zXVbetnUBKaUqAkPPH19eijjwKhvtdMrwG9xr/++uu487r6oLpts4rASaqZmZmZRY7/k2pmZmZmkePL/WUoGyOnCqNtKKdMmRJ3XM1ZH3/8MVC8y8pjx44Fwhadatb54IMPAKhdu3YpVly+jRkzBgjbtcrmm//1++Trr78OwEEHHZTdhWXIv/71LwCuu+66uOPaLlSlMNqCNRM2bNgAwH777QfAkiVLABgwYAAAt956K1C8DS5+//13AO655x4g/P10HyqBcWOiiZ4jek2I3j/1nKlfv352F2ZWhpykmpmZmVnkOEktQ9kcOZWKktIWLVoAsGnTprjz2qbz8ssvL/S+tKVqkyZNAFi3bl3c+eOOOw6Ap59+uhQrjg41w2hEjJJvbRBQ1PRZP2eAAw88EAgDvWXQoEEAjBo1qhQrjh49R/bee28gpEWyxx57ALBo0SIAtt1227SvQc/tG2+8Me640lw1r5Vm4P6PP/4IhNFaSm3NVq1aBUCjRo2A5Nd+WTQRmkWFk1QzMzMzixwnqWVg1qxZQEhmsjFyqjDnn38+EGroZLvttgNCAlSzZs1C72v06NFASP8SPfLIIwCceuqpJVtsRCjZuOiii+KO16pVCwgjY/S91fdy8eLFABx77LEALFu2LOVjlJeRU4V58803AejYsSMQtq+VgQMHAnD77ben7THfeecdIAxHTxwTpQ0TVCdslgmp3nt1Re3TTz8Fivbea1beOEk1MzMzs8hxkppFUejmTyWddVFKwZSKKSWTHXfcEQhd1DvvvHNJl12mVIN77bXXAvDggw8CobNblIj07t0bgDZt2sT9OT/ltZu/MEqfExPTpk2bAjB//nygdImyuvm1NammToi6p5V4F6er36wo1AsAqfsBbrjhBiBsj2pWETlJNTMzM7PIcZKaRam6+VWrqEQnk938hRkxYgQAw4YNizuudEnbPQJss802Bd6XOrXVuZ3Y7d+jRw8Apk6dWooVR4e2+tRcTc2LTdzysyiqVKkChBQ2FU1SmDlzZrEfI9HKlSuB0nee6zlSkgRS36t9990XgG7dugFhhmQ6anKHDh0KhKQq0YwZMwA48sgjS/1YZvnp1atX3ueJ73+77rorENLWwt5nzcozJ6lmZmZmFjlOUrMgit38qSjtVJp2yimnADB48GCgZHMqb7vtNgAuueSSfM9PmjQp7rHKi9WrVwNw7733AqHWeO7cuUDy86AkmjdvDiTXVZbE119/DUDdunVLdT9r164FCk+BC6LnYTqnGbz77rsAHHDAAUByN792mLrvvvvS9piW277//nsAXnrpJQBOOumkUt3f7NmzAejQoUPK20ycOBGAPn36lOqxzMoDJ6lmZmZmFjlOUjNI9XV77bUXkNzN36lTJwBefPHF7C6sCNShry7zdNyX9l9XmiA77LADEOZWapeh8kYJ3TnnnJPyNqqX3HPPPYt0n9WrVwfCbl6lofRyypQppbofJeLac7ysabendu3aAbB06dK487vtthsQdv5yN7/pn8WePXsC8MwzzwDhdabZubVr1y7W/WpHubfeeivpnGr3NcEiHe+9ZrnOrwIzMzMzixwnqRmkXXLuvPPOuOPq5ldyo27O8q6wbn/NC1TNZtWqVbO4usz58ssvgZCoJ86g1WxQCPW75YFqPidMmJB3THN233jjDaB0dasFid2xqnv37gC88MIL+d5W9YZHHXVURtZiuefKK68EwgzkRDfddBMAl112WZHu74knngDghBNOSHmb6dOnA3D00UcXeZ1m5Z2TVDMzMzOLHCepaaYdggAOPfRQILmL+/777wegf//+2VtYhKh7tW/fvvme1/zUp556CoDNNtssOwvLECV0L7/8ctzxxo0bA7Bw4cK8Y+nsZi8rSjHVRa9a41iaZKHJFukWu0uPUq9ESsFSnbeKRWknwIknnggkv3drdq76CLbYYosi3bdmB59xxhkAvP3223nnlJwqSTWzwEmqmZmZmUXOlmW9gPJCnfz9+vXLO5b4W7i6+StqgipKE9577z0g1CmKkrj169cDuZsuqps/MUFV1+748eOB3P37paK/X5cuXYD8k9QHHngACDV6em2kiyZGxK5Hz6tjjjkGSL3jlFUsixYtAsL7EiS/d2viyOOPPw4UPUGVpk2bAmGyyciRI/PO6floZsmcpJqZmZlZ5LgmNU1SdfJDxe3mL8ymTZsA6Ny5MxBmCF5zzTVA7taiFrWbvzx18ufn999/B6B169Z5xxYvXhx3G70W9NrQayWd1NWv55W6+Ys6WUDTCVRj26xZs3Qv0crAmjVrgPD8XLZsWdJtNGFEE0c0gcTMssNJqpmZmZlFjpPUUlI3f6pOfnA3f2E0T7O4dV5Rlaqbv1GjRkCogStvtaip/Pe//837XGmkUnTJdLd/SSxYsACAtm3bAqG2VYnskCFDgPLzvK0o9NxTV/2rr76adBtdxdGEEU0cMbPscpJqZmZmZpHjJLWE1M3fqlUrAD777LOk26hjWTP1rHwbO3YsAGeffXbccSVws2bNAqBDhw7ZXViEDBs2DIARI0bke16vlXR3+wN89913AOy0004F3m7jxo0AtGnTBoifYwuwyy67ALBkyRIgc7tmWXrpnzpd0dJ0jfxcffXVAFx11VWZX5iZpeQk1czMzMwix/9JNTMzM7PI8eX+Eko1cip2hI5HTlUMhY2cuuiiiwAYPXp0dhcWQRpLtf/++wPhNSKZGEmlZqxLLrkEgOeeew6AQw45JN/bqzFKl3wT6eu7du1a6rVZ5mkTB13m10ixRL169cr7XFuk5uoYPLPywkmqmZmZmUWOk9RiKmzklMZNgUdOyYoVKwCoW7duGa8kMwobOaXGm2233Ta7C4swjaVKNZJKr53Y11NxTJw4Me9zbVWs12qVKlWAkIjqtayfkxqm1EAlvXv3BuDBBx8s0ZqsbLz11lsAHHzwwUAYeSf6ec+cOTPvmIb4m1nZcpJqZmZmZpHjJLWIChs5pcHQ06dPz+7CIuiHH34AQi3mM888A8D8+fMB2GOPPcpmYWnmkVOld8UVVwBw/fXX53v+2WefBaBbt27Fut/nn38+7/Pjjz8egA0bNsTdRsm26g8vv/xyIPXIqQ8++ACA6tWrF2stFg2TJk0CQiKuBFXv2R4lZhY9TlLNzMzMLHKcpBaRUsE77rgj7ri6j93JH2q9WrRoAcDSpUvjzjdv3hyAuXPnAlCtWrUsri59li9fDkDLli0Bd/OXhrr999tvPyCklaJ069NPPwWgZs2axX6MadOmAdCzZ08gOVHVtqaJtYpS0jTXokkpu2pU0zFBwswyw0mqmZmZmUWOk9RCFNbNr7rEs846K7sLi7CHH34YCLVfiY477jgApk6dCmR2FuGyZcsAaNCgQdruU/XHM2bMiDvubv6SW7BgAQDt27cHwutM3f2nn356qR9DtYc9evQAYP369QXefsCAAQDcd999pX5sKx/Um+DXtll2OEk1MzMzs8jZsqwXEFX6jTlxxqIoTXOCmkypl2Zh3n777XHn1e1/1VVXATB8+PC0r0GPOXToUADGjBkTt7aSUGqemKCqm1872ThlKb7vv/8egK222gqAffbZB4DTTjstbY/RqVMnAIYNGxb3MRXVw6pWVbWrVvFomosmdVx77bWAZ2GbZZqTVDMzMzOLHNekpuBu/tJTAtW5c2cgeUcm1aL++9//BsI8y9KYM2cOEGqIE3cN0kxTJa1bb711offpbv7009vODTfcAMCVV14JJHfY33TTTQBcdtllpX5MTQho3bo1AD/++GORvu6www4D4LHHHgOgVq1apV6L5YZffvkFCDujJU6fGDRoEACjRo3K7sLMKggnqWZmZmYWOa5JTfDGG28AcOedd+Z7/tZbbwWcoBaFavgef/xxANq2bQuE+i6laX369AGgcePGQNjVqyTWrl0LhLrQxLRMndqql9VuQ/Xr1095n6o7S0xQ1c2farckS6bdyDT54bnnnsv3dpUqVQKgSpUqaXvsunXrAtClSxcAJk+eDIQ0faeddgLgq6++ivu6V199FYB9990XgMWLFwOw4447pm1tFi16b1INe2KCKqV5rzKzwjlJNTMzM7PIcU3q/1E3/9577w2E+jVRN79mLVrxKY1QfZfqvUSzTN99910AatSoUeLH0s/vb3/7G5C8H7soDXvwwQeB+F2F1M2vOlZRLe2sWbOAsHON5e+dd97J+/zvf/87AF988UW+t61Xrx4Q6pT1XMkE1bvqqkjXrl0BOOOMMwB4+umn424/cOBAIHlahaVfbC25UvVsKmzyiOvQzbLDSaqZmZmZRY6T1P9z8cUXA8kpibv5008JVa9evYDkGbTadUipdbVq1Ur8WOvWrQPgvPPOA2DixIkF3v6II47I+3zu3LkA/Prrr3G3caJWsG+//RaAK664Aoj/nv/555/5fs1RRx0FwKOPPgpAzZo1M7nEIrnlllsAePbZZwF45ZVXgLJJ9so7XclSzf/48ePzzmk3surVq2d0DbGPqTr0xPcmvT/ovcmzc80yy0mqmZmZmUVOhU9S1c3fsWNHIPk3Z9Ulemep9FO9l+q/EmnWqbqr02HcuHEAXHjhhUDh+7fHatiwIRBSde8s9Rd9D0eOHAnAjTfeCCTXHMdSXa92fbr66quBsHtXlCj9jeLacpXeZydNmgTA5ZdfDiRPVgAYPHgwEFLWdLv//vuB+NrzxH8Hdt99dyDUV3uyg1l2+F3XzMzMzCKnwiaphXXzq0bupZdeyu7CKhA99dRN/dBDDwFh//apU6cCYa5lOr333ntASE9iO9BT2XPPPQFYunRp2teTy5RK33XXXYXedo899gDg7rvvBqBTp06ZW5hFzuzZs4GwU1NRXne1a9cGwnzldF3B0Mzkc889F0hOTyHMzn3ttdcAaN68eVoe28yKxkmqmZmZmUVOhU1SC+vm164yu+22W3YXVgGp5u+cc84BoHv37nEfM+nLL78EoGnTpkDBNaqa3anZq/aX5cuXA+F7qIkK22+/PQD/+te/8m6r1FVpeTZs2rQJCPWOmsdrmaPd2aZMmQKEOcTqAUhlyy3/2gRR0zgg1Kynqw70nnvuAeCCCy4A8k9Qa9WqBcDMmTMBaNGiRVoe28yKx0mqmZmZmUVOhUtSC+vmV53SgAEDsrswKxOqicyv9ljJzX777QfAjBkzsrewHKQO/e+++w6Aa665BiibmadKT+V24OQAABSISURBVAFOOeUUAF5//XUgzDuNUjqm2mhduenduzeQO3OZ9dpQYqp6ctX+F0Y7vamDv0mTJuleYt6UkMMPPzzf86p9hZCgNmvWLO3rMLOic5JqZmZmZpHj/6SamZmZWeRUiMv9sZecPHLKIAzwTizr0JB5gFmzZgFw8MEHZ3Qt+b0EY9eRDrr8rcaU8k6X+AEmT54cd05jhXRJt2XLltlbWAI1c9WvXx9I3jigQ4cOALRp0waAffbZBwjvYxAuSZflz1brWbRoUZFuv9deewEwatQoAI488sjMLCyGXmcqrdB7QJ06dYD4TUMyUW5gZsXnJNXMzMzMIqdCxCpDhw7N+zwxQa1WrRoQtsu08u1///sfAEOGDMn3vEYkQeYTVNHGAhC2gm3VqhUQhodXqVIFgG222QaArbfeGoDff/8dCKOzNP5JGw4sXLgQCGN8Bg4cmKG/RWasXr0aCOO/NHi9MIcddlje54899hgQkjQ1dimlnDBhAgA9e/ZMw4qL5+GHHwZCgir6s5q99DE/ei7ouaKUsnr16gC0bdsWgFNPPTVdy07Sp08fIGxhKhrpd8IJJwBh4w5977NJVyfUHLvDDjsAcOaZZwJhsw4ziw4nqWZmZmYWOeW6JvXNN98EwrgpSE4sPHKqYkk1ckrbdcbW1KVr+8XCKMkD6NevX0YeQ1cMNKS8JObNmwekb6h6QbTJhpK5P/74Awjr19+nKH766ScgJKipnHTSSUBINzNZ46lEX4mi1qgh+Pr7pkPVqlWBsBVpYQP1S0KJ/ocffgiEcU4aP7bFFluk/TGtYtPVT713W/nkJNXMzMzMIqdc1qSqLq9v375AcnoKoZvfCWrFoE7exARVdWrjx48HspeexlLdaCYpodPHkogdkJ8pd9xxB5CcoMqqVaviPqaTaldXrFgBwOOPPw6E7u902rhxIxC2lM2kX375BQhprR47nfQ6Ul2s6L03v/dgs/wojf/+++/jjh900EFxfy7HF4EthpNUMzMzM4ucclmTqtqr0aNHJ51TLdv7778PhG0IrXxS7Z8SHqVKom5+JXhlITYxWLBgQdzHZcuWAaF7Xx+/+eYbIKRjlSpVAkIdpTq769WrB4TtNbfffvsSr1Od2ZowkA76efTv3x8I6WUiJXXdu3cHoHPnznHHi0NJ6dixY4HUqazqKpWwxta2l5YS7UmTJpXo6zds2JD3uf4+mrm6cuVKINSJqmZP74uxM1bNombJkiVA2Lb40UcfBeDkk08uszVZ2XGSamZmZmaRU66S1MRu/vzqoNzNX7Go9vjll1+OO77zzjsD8PnnnwNlU4takWk2rHaG+uijj/K9nbr5tWvU4YcfnrY1KM1U7fqTTz6Z7+3UmT58+HAALrvsMqDi7N5llk1OUi2Wk1QzMzMzi5xykaSqm1+1Vp988knceaVpkNzdbeWTZuidddZZBd5OOzzddtttQNgb3dLn22+/zfv8iiuuAGDixIlA6q5vdfKqRrVu3bqZXCIQngNKShOnGah+Xbt5pbM21+L99ttveZ+vXbsWgF122aWslmNZ5CTVYjlJNTMzM7PIKRdFVUOHDgWSE1R18itVs/JP3fyJe4in8tprrwGw//77A6GDHWDEiBFA6PK2otEEglGjRgFwww035J1LnK6Q6OKLLwbglltuAbJb96nud+11f+KJJwLw9ddfA3DjjTcCTlAzQRf0NO3g8ssvzzunyRzTp0/P/sLMrEw5STUzMzOzyMnpmtTCuvnHjBkDwNlnn53dhVmZ6dSpE5Bce6x5oQ0bNgSKtn+59jz/5z//CYR01klawTSns3HjxkDBu1xphqfqQTUHNQo0P1XvI1deeWVZLqdcmjNnDhBS7Hnz5qW87fPPPw9Aly5dMr8wKzOuSbVYTlLNzMzMLHJyMkktrJv/yCOPBGDGjBnZXZiVmVTd/NqRSLWnhxxyCABTp04F4NJLLwXgs88+K/QxtGuTZuz27t0b8K5lqagWVTXjEHa8GjZsGAADBw4EYKuttsry6iybNm7cCMBzzz0HwPjx4+P+XBDVJV9//fVAeM1a+eQk1WI5STUzMzOzyMnJJFX1S6NHj447rm7+xYsXA1C/fv3sLsyyTt38LVu2BMJe9nLhhRcCcMcdd+T79drf/M477wTg2muvzTv3448/FvjYNWvWBOCbb74BvANRInX5a6cmCK/dnXbaqUzWZNkxf/58IMzD1Y5hq1evLtLXd+3aNe/zW2+9FYCmTZumc4kWUU5SLZaTVDMzMzOLnJyKftTNnyoV02xFJ6gVR//+/YHkBFVd45ptmYpqIdW536dPn7xzV111FQD33XcfAH/88Ufc12qOphPU/GkKgmoJLTV1rmuSwOmnnw7AAQccAES/7vmtt94CwiQVXc0qKl0J0Wzd2F0CzazicpJqZmZmZpGTExGQuvn79esHJM9DPeKIIwDPQ61I1M2fOA9V3fwPPPAAANtuu22x7ld1pgB33303AJdccgkAEyZMAODhhx8G4nenyhSlt1tssUWRbq/XhnZJWrBgAQALFy6M+/MHH3yQ9zU65g77sqPnq7rdE7ved9hhBwBatWoFwD777JN3TlNO9LFZs2YAVK5cOYMrjrfzzjsD8P777xd4u0qVKgGh5lSvoW7dugFFf56bWcXgJNXMzMzMIsf/STUzMzOzyMmJEVS63KqtE8Ujpyqe0o6cSge9ZFRakEna8ldNg1tvvXXcR43Q2rBhA5Dc3FUU06ZNA8LIl1Tq1q0LwOabZ/53W5X4FHVkUTrUqlULCN/bTNLPSWUXrVu3BsLQ+3TS30dbAbdp0ybtjyHaLEOPtd9++wGhIfGUU04B4stqzGJ5BJXFcpJqZmZmZpET6SR19uzZQPjtPLFh6t577wXgnHPOye7CrMx07twZgOnTp8cd18ipRYsWAcVvmIqqdu3aATBv3rwyXgmsXLkSCIljJj311FMAHH/88Rl/LNFz6uijj874Y33++edAeN5mg7YMrl69esYeQw17apDypg1WXEpSNZatXr16QHKSqo1B6tSpk8XVWbY5STUzMzOzyInkCCrVo/Xt2xfwyKmKTuN5IDlBLe3IqahTralZael99cEHHyzjlZilpjp7+eqrrwC4/fbb446fdtppgJPU8s5JqpmZmZlFTiRrUt3Nb5DcyQ/J3fwXXHABAHfeeWf2FpZFy5cvB8Lfe/369QB89913APzyyy9A6ODWQP7tttsOgBo1aqRtLY0aNQKyM3Bdf68VK1Zk/LFk1113BbKTxquLX7Wp6aDUfdWqVXF/1scOHToA2akpNjNLByepZmZmZhY5kUpS3c1vsY455hgAXnzxxaRzu+++OxC6+atUqZK9hZmZmVnGOUk1MzMzs8iJRHf/pk2bAOjXrx+QnKCqJlHdfFa+qVM/vwRV3fzjx48HnKCamZmVV05SzczMzCxyIlWTqh0munXrlu/5ypUrA2FHmJ49ewJw7LHHArDDDjtkeomWQZqHp+T8xx9/TLpNee/mNzMzs784STUzMzOzyIlUknrKKacAMHny5GJ93ZZb/lVae+ihhwLQq1cvAHr06AF4R4pckaqbX5384G5+MzOzisJJqpmZmZlFTqSS1FmzZgHQqVMnoPT7lqsTvH379nnHlLIef/zxADRo0KBUj2Glp27+/v37xx3Xz+/VV1/NO9axY8fsLczMzMzKjJNUMzMzM4ucSCWpokS1S5cuAPz2229x56tWrQrAbrvtBsCSJUtK/Fj77rsvkJywNmvWrMT3aUVTWDe/O/nNzMwqLiepZmZmZhY5kUxS5bXXXgOga9euQHKiWrt2bQAmTZoEwMKFCwGYOnUqALNnzwaSd7AqiqZNmwLJCet+++1X7Puy/BXWze9OfjMzs4rLSaqZmZmZRU6kk1QpaqKq2zVp0gSAlStXAvD000/n3fbJJ5+Mu+3GjRuLtRZNAzjhhBMAGDBgAACNGjUq1v1UZOPHjwfgzDPPjDue2M3vTn4zM7OKy0mqmZmZmUVOTiSpooStW7duQHKiqp2ldDslqvn54YcfAHj22WeBkLC+9NJLAKxfv75Ia1L6d/TRRwOhIx3CdILNN/fvAlB4N//5558PwF133ZXdhZmZmVnk+H9PZmZmZhY5OZWkSlETVdWd7rnnnkW+719//RWAF154AQgJq/78888/F/m+GjZsCMC5554LhBrMHXfcscj3UZ64m9/MzMyKykmqmZmZmUWO/5NqZmZmZpGTk5f7ZebMmQB0794dKPyyPxTv0n+sDRs2AOFS9ZgxYwCYPn06AEX5Nm677bYA/Otf/wJg8ODBAFSqVKlEa8oVhY2c0s/x0EMPze7CzMzMLLKcpJqZmZlZ5OR0kipK4tRItW7durjzu+yyS97naroqaaKa6JNPPgHgnnvuAWDixIl559auXVvg17Zo0QIIqWyHDh3Ssqao8MgpMzMzKyknqWZmZmYWOeUiSZXCElUIqWq6E1WJrYudNGkSALfddhsAH374Yb5fo9rMvn37AnDzzTcDUKNGjbSuLds8csrMzMxKykmqmZmZmUVOuUpS5ZVXXgFC139Biao6/xs3bpyx9WzcuBGAUaNGATB8+HAgeRqB1KxZE4AnnngCgI4dO2ZsbZngbn4zMzMrLSepZmZmZhY55TJJlcREFVJ3/mcjUZUvv/wSgAsuuACA5557Lt/bVa5cGYCpU6cC0KlTp4yvrTTczW9mZmbp4iTVzMzMzCKnXCep8vLLL+d9fuyxxwLJiWrdunWB0PWfjURVlJSee+65AKxcuTLu/FZbbQXA448/DkCPHj2ytrbi6NKlCwDTpk2LO96wYUMAFi9eDLib38zMzArnJNXMzMzMIqdCJKmxlKoWlqiqRrVRo0ZZW5t2rzriiCMA+N///hd3fssttwRgypQpAPTs2TNrayvIhAkTAOjXr1/ccXfzm5mZWUk5STUzMzOzyKlwSarMmDEDgOOOOw6IVqKq7v/DDz8cgM8//zzufNWqVQF45513AGjatGnW1hZrxYoVALRo0QJI7uY/77zzALj77ruzuzAzMzPLeU5SzczMzCxyKmySKkpUVaO6fv36uPNKVFVXueeee2ZtbV9//TUAHTp0AOCLL76IO9+sWTMA5s2bl3dMKWs2uJvfzMzMMsVJqpmZmZlFToVPUqWwRLVOnTpA2MVKKWY2zJ8/H4CDDjoo37UNGjQo7/NRo0ZldC3q5Ad385uZmVnmOEk1MzMzs8hxkpqgsK7/WrVqASFR1T712TB27FgAzj777Ljj2pEK4IMPPgDSP40gsZMf3M1vZmZmmeMk1czMzMwix0lqCqqr7N69OwC//fZb3PkaNWoA8OyzzwLQvn37rK1NjzV37tykcz169ABg6tSpaX3MVJ384G5+MzMzSz8nqWZmZmYWOU5SC/H6668D0LVrVwB++eWXuPPbbLMNAJMmTQKgV69eGV/TW2+9BcCBBx6Y8jbaKatjx46leix18yd28kPo5ld97mGHHVaqxzIzMzMTJ6lmZmZmFjlOUotI6aVqVNesWRN3fvPN//r//siRI/OOXXzxxRld00knnQTA448/nnROKevs2bNLdN+J3fyJnfzgbn4zMzPLHCepZmZmZhY5/k+qmZmZmUWOL/cX08cffwzAMcccA8Dnn3+e8rYXXXQRELYqVUlAunz55ZdA/OD+TZs2xd3miy++AKBBgwbFum81ir3wwgtxxzVuCmDRokUAVK1atVj3bWZmZlYYJ6lmZmZmFjlOUkto1apVQGikmjdvXsrb9uzZEwhjqipXrpzWtXTq1Cnv85deeinu3C233ALAkCFDinRfEydOBKBv375xxxPHTYFHTpmZmVnmOEk1MzMzs8hxklpK2i715JNPBuA///lPytvutddeAEyZMgWApk2bpmUN48aNy/v8rLPOijvXtm1bAN5+++0C70Mjp1q2bAnA2rVr486fe+65ANxzzz2lW6yZmZlZEThJNTMzM7PIcZKaJn/++ScQOvoB7rrrrnxvW6VKFQDGjBkDwGmnnVaqx47dWKB27dpAcpf/smXLAKhfv36+95Gqm19TARYvXgy4k9/MzMyyw0mqmZmZmUWOk9QMuvfeewEYNGgQABs2bMj3dv369QNC8lqa7v+jjz4agBkzZsQdv/XWWwEYPHhw3PGidvO7k9/MzMyyyUmqmZmZmUWOk9QseO+99wA48cQTAfj000/zvV2LFi2A0K1/wAEHFPux7r//fgAGDBgQd7xdu3YAzJ07F3A3v5mZmUWbk1QzMzMzixwnqVn0008/AWGWqealJtp8879+d1AaeuONNwKw/fbbF/oYq1evBqBOnTpA6i7/8847D3A3v5mZmUWTk1QzMzMzixwnqWVI3f/quF+3bl2+t1MqevPNN8P/b+8OcRqLwjAMvwkBNoFkBRg8JGwDVoDE4DEoErAgWQAKg0OxBzxBIUAhRpWaGcJkSOafyfOo5vbe0yO/fO3f0/J0q5WVlV+uvbu7W9Xd3d1Pry+m9hdM8wMAk2hSAQAYR5M6wOPjY7X8nejt7e2n929ublZ1dHRU1f7+/sd7a2trVR0fH1d1cnLypT2Y5gcAJtGkAgAwjiZ1oOvr62p5UtXT09On929sbHy8Xjyzurpa1eHh4afPmuYHACbSpAIAMI4mdbDFKVCnp6dVXVxcVPXy8vJtn7GY5t/Z2fm2NQEA/pQmFQCAcTSp/5BFg3p+fl7V2dlZVc/Pz7+91sHBQVVXV1fftDsAgO+jSQUAYBxN6j/s7e2tqsvLy49rNzc3Vd3f31f1+vpaLf9TdW9vr6rt7e3KND8AMJMmFQCAcYRUAADG8XX/f+r9/b2qh4eHqtbX16va2tr6a3sCAPgqTSoAAONoUgEAGEeTCgDAOEIqAADjCKkAAIwjpAIAMI6QCgDAOEIqAADjCKkAAIwjpAIAMI6QCgDAOEIqAADjCKkAAIwjpAIAMI6QCgDAOEIqAADjCKkAAIwjpAIAMI6QCgDAOEIqAADjCKkAAIwjpAIAMM4PpmJIOEcguicAAAAASUVORK5CYII=;" vertex="1" parent="1">
          <mxGeometry x="220" y="10" width="395.69" height="380" as="geometry" />
        </mxCell>
        <mxCell id="6_0IzfVlJxFTBLtl2Sgu-2" value="" style="endArrow=classic;html=1;rounded=0;strokeWidth=2;" edge="1" parent="1">
          <mxGeometry width="50" height="50" relative="1" as="geometry">
            <mxPoint x="130" y="100" as="sourcePoint" />
            <mxPoint x="200" y="100" as="targetPoint" />
          </mxGeometry>
        </mxCell>
        <mxCell id="6_0IzfVlJxFTBLtl2Sgu-3" value="" style="endArrow=classic;html=1;rounded=0;strokeWidth=2;" edge="1" parent="1">
          <mxGeometry width="50" height="50" relative="1" as="geometry">
            <mxPoint x="130" y="150" as="sourcePoint" />
            <mxPoint x="200" y="150" as="targetPoint" />
          </mxGeometry>
        </mxCell>
        <mxCell id="6_0IzfVlJxFTBLtl2Sgu-4" value="" style="endArrow=classic;html=1;rounded=0;strokeWidth=2;" edge="1" parent="1">
          <mxGeometry width="50" height="50" relative="1" as="geometry">
            <mxPoint x="130" y="199.70999999999998" as="sourcePoint" />
            <mxPoint x="200" y="199.70999999999998" as="targetPoint" />
          </mxGeometry>
        </mxCell>
        <mxCell id="6_0IzfVlJxFTBLtl2Sgu-5" value="" style="endArrow=classic;html=1;rounded=0;strokeWidth=2;" edge="1" parent="1">
          <mxGeometry width="50" height="50" relative="1" as="geometry">
            <mxPoint x="130" y="50" as="sourcePoint" />
            <mxPoint x="200" y="50" as="targetPoint" />
          </mxGeometry>
        </mxCell>
        <mxCell id="6_0IzfVlJxFTBLtl2Sgu-6" value="" style="endArrow=classic;html=1;rounded=0;strokeWidth=2;" edge="1" parent="1">
          <mxGeometry width="50" height="50" relative="1" as="geometry">
            <mxPoint x="130" y="250" as="sourcePoint" />
            <mxPoint x="200" y="250" as="targetPoint" />
          </mxGeometry>
        </mxCell>
        <mxCell id="6_0IzfVlJxFTBLtl2Sgu-7" value="" style="endArrow=classic;html=1;rounded=0;strokeWidth=2;" edge="1" parent="1">
          <mxGeometry width="50" height="50" relative="1" as="geometry">
            <mxPoint x="130" y="300" as="sourcePoint" />
            <mxPoint x="200" y="300" as="targetPoint" />
          </mxGeometry>
        </mxCell>
        <mxCell id="6_0IzfVlJxFTBLtl2Sgu-10" value="&lt;font style=&quot;font-size: 16px;&quot;&gt;\begin{equation}&lt;br&gt;v(1-a)&lt;br&gt;\end{equation}&lt;/font&gt;" style="text;html=1;strokeColor=none;fillColor=none;align=center;verticalAlign=middle;whiteSpace=wrap;rounded=0;" vertex="1" parent="1">
          <mxGeometry x="120" y="160" width="60" height="30" as="geometry" />
        </mxCell>
        <mxCell id="6_0IzfVlJxFTBLtl2Sgu-11" value="&lt;font style=&quot;font-size: 16px;&quot;&gt;\begin{equation}&lt;br&gt;\Omega&lt;br&gt;\end{equation}&lt;/font&gt;" style="text;html=1;strokeColor=none;fillColor=none;align=center;verticalAlign=middle;whiteSpace=wrap;rounded=0;" vertex="1" parent="1">
          <mxGeometry x="590" y="160" width="60" height="30" as="geometry" />
        </mxCell>
        <mxCell id="6_0IzfVlJxFTBLtl2Sgu-12" value="&lt;font style=&quot;font-size: 17px;&quot;&gt;\begin{equation}&lt;br&gt;r&lt;br&gt;\end{equation}&lt;/font&gt;" style="text;html=1;strokeColor=none;fillColor=none;align=center;verticalAlign=middle;whiteSpace=wrap;rounded=0;" vertex="1" parent="1">
          <mxGeometry x="530" y="80" width="60" height="30" as="geometry" />
        </mxCell>
      </root>
    </mxGraphModel>
  </diagram>
</mxfile>
